IDCHesperapisDeseret.sfdir
StartChar: uniE000
Encoding: 296 57344 80
Width: 685
VWidth: 952
Flags: W
HStem: 0.0521842 21G<110.987 124.105> 740.728 59.2598<161.475 337.004>
VStem: 0.4375 148.146<535.377 636.608> 415.248 118.518<523.519 664.829>
LayerCount: 2
Fore
SplineSet
346.115234375 272.830078125 m 1
 142.80078125 12.0126953125 l 2
 137.210887823 4.34810351008 128.806778593 0.0521841652141 119.402427123 0.0521841652141 c 0
 102.572307583 0.0521841652141 89.3330078125 12.976081545 89.3330078125 29.4052539032 c 0
 89.3330078125 35.237164668 90.8899445974 40.6808233512 93.9267578125 45.466796875 c 2
 270.140625 326.02734375 l 1
 190.85546875 381.543945312 l 1
 224.845703125 430.087890625 l 1
 264.566929275 402.275612886 281.839582238 390.181310017 301.700195312 376.274414062 c 1
 398.86328125 530.974609375 l 2
 410.086434236 548.187041118 415.248046875 566.636119357 415.248046875 589.538442827 c 0
 415.248046875 674.655684759 345.316424775 740.727539062 255.226826719 740.727539062 c 0
 187.664465392 740.727539062 116.393832454 706.837137958 82.8876953125 658.77734375 c 1
 120.245526435 654.566355835 148.583007812 622.818567611 148.583007812 585.175853172 c 0
 148.583007812 544.285604406 115.396933539 511.100585938 74.5053838203 511.100585938 c 0
 30.5490266334 511.100585938 0.4375 547.949003632 0.4375 601.739773847 c 0
 0.4375 710.365266929 120.990601167 799.987304688 267.105779802 799.987304688 c 0
 418.260100848 799.987304688 533.765625 706.191259553 533.765625 583.446675489 c 0
 533.765625 533.062478337 514.81800723 484.361614516 479.478515625 443.913085938 c 1
 382.596679688 319.629882812 l 1
 455.419921875 268.637695312 l 1
 421.4296875 220.094726562 l 1
 409.449582253 228.482850666 398.571637685 236.099567245 376.506132305 251.550116457 c 0
 359.637866719 263.361491863 353.550075977 267.624214008 346.115234375 272.830078125 c 1
EndSplineSet
Validated: 524289
EndChar
StartChar: NameMe.297
Encoding: 297 57345 81
Width: 805
VWidth: 952
HStem: -0.0146484 59.2617<259.953 391.129> 381.952 59.261<339.222 481.184> 740.722 59.2607<264.458 390.938>
VStem: -0.358398 168.358<259.678 540.987> 198.718 59.2598<529.826 647.237> 483.086 168.389<262.379 390.869 446.286 537.584>
LayerCount: 2
Fore
SplineSet
198.717773438 647.237304688 m 1
 199.71089872 562.882138302 209.156165664 521.520060692 237.205078125 478.696289062 c 1
 189.02734375 418.47265625 l 2
 184.779183421 413.162388702 182.532727974 406.846119832 182.532727974 400.212005011 c 0
 182.532727974 383.717828155 195.728358263 370.353515625 212.014348227 370.353515625 c 0
 221.167642392 370.353515625 229.659210692 374.412127064 235.325195312 381.495117188 c 2
 277.078125 433.688476562 l 1
 316.407339134 400.481804856 367.777585488 381.952148438 420.508087282 381.952148438 c 0
 441.700459346 381.952148438 462.827383234 384.962616432 483.0859375 390.869140625 c 1
 482.76044847 340.149725055 479.506986465 281.655997884 475.082492403 246.97585613 c 0
 460.594456708 133.415497661 401.518599581 59.2470703125 325.554730715 59.2470703125 c 0
 249.480001091 59.2470703125 190.496829797 133.604782602 175.916739715 247.889668503 c 0
 171.212209089 284.765760678 167.999999901 346.479443744 167.999999901 399.987848647 c 0
 167.999999901 456.408647168 171.425767287 516.874468996 177.17800812 561.982446377 c 0
 182.07273482 600.365961204 188.202787845 624.628844034 198.717773438 647.237304688 c 1
276.98828125 528.42578125 m 1
 262.705463715 558.253768131 257.977539062 590.460805741 257.977539062 657.928625242 c 0
 257.977539062 681.611977813 258.688585282 702.378235244 260.12890625 720.759765625 c 1
 280.50678859 733.919204021 302.802606584 740.721679688 325.556145472 740.721679688 c 0
 400.768336725 740.721679688 460.439724273 667.766809953 474.340691609 558.816119454 c 0
 477.525650739 533.853576344 480.734994234 490.197846098 482.127929688 452.888671875 c 1
 463.040502119 445.205676145 442.114473768 441.212885096 420.937026652 441.213141007 c 0
 380.435692112 441.213630431 342.574701914 454.844263413 313.919921875 479.741210938 c 1
 383.46875 566.6796875 l 2
 387.716612489 571.98991843 389.962913685 578.306112698 389.962913685 584.940105789 c 0
 389.962913685 601.434306753 376.767646898 614.798828125 360.482336254 614.798828125 c 0
 351.32917513 614.798828125 342.837372278 610.739851693 337.170898438 603.65625 c 2
 276.98828125 528.42578125 l 1
325.55521061 -0.0146484375 m 0
 505.69710158 -0.0146484375 651.474609375 178.895423885 651.474609375 399.980275925 c 0
 651.474609375 621.068906875 505.699189523 799.982421875 325.56026597 799.982421875 c 0
 145.418568704 799.982421875 -0.3583984375 621.072662916 -0.3583984375 399.987615888 c 0
 -0.3583984375 178.8984972 145.416348861 -0.0146484375 325.55521061 -0.0146484375 c 0
EndSplineSet
Validated: 524329
EndChar
StartChar: uniE002
Encoding: 338 57346 82
Width: 654
VWidth: 952
Flags: W
HStem: 148.129 133.332<160.567 344.311>
VStem: -0.350586 62.508<2.60073 64.2266> 444.089 59.2607<770.352 798.858>
LayerCount: 2
Fore
SplineSet
251.498240154 281.4609375 m 0
 118.226676782 281.4609375 -0.3505859375 173.862930126 -0.3505859375 52.9311905204 c 0
 -0.3505859375 18.2945969882 9.89580926979 -0.0146484375 29.279471333 -0.0146484375 c 0
 42.9899988172 -0.0146484375 53.0539298502 9.62239392128 62.1574370401 31.4687100186 c 0
 90.5180300653 99.5275874398 169.401212904 148.12890625 251.504718442 148.12890625 c 0
 333.606028863 148.12890625 412.480702191 99.530227745 440.84274717 31.4681633435 c 0
 449.946493827 9.62136803201 460.008874082 -0.0146484375 473.718575542 -0.0146484375 c 0
 490.072226538 -0.0146484375 503.349609375 13.2626562261 503.349609375 29.6162109375 c 2
 503.349609375 770.3515625 l 2
 503.349609375 786.704968726 490.072375023 799.982421875 473.719238281 799.982421875 c 0
 457.36610154 799.982421875 444.088867188 786.704968726 444.088867188 770.3515625 c 2
 444.088867188 320.193359375 l 1
 -0.34765625 488.595703125 l 1
 -0.34765625 399.705078125 l 1
 444.088867188 231.301757812 l 1
 444.088867188 191.828125 l 1
 396.016006372 248.826277991 325.895150374 281.4609375 251.498240154 281.4609375 c 0
EndSplineSet
Validated: 524297
EndChar
StartChar: uniE003
Encoding: 339 57347 83
Width: 695
VWidth: 952
Flags: W
HStem: -0.0146484 59.2617<139.722 291.749> 370.354 59.2607<119.197 292.494> 740.722 59.2607<139.725 291.747>
VStem: -0.428711 60.9429<130.41 213.441 586.526 669.555> 366.95 177.775<137.311 291.357 508.605 662.647>
LayerCount: 2
Fore
SplineSet
248.455784702 -0.0146484375 m 0
 121.614989906 -0.0146484375 -0.4287109375 89.0016878166 -0.4287109375 181.516932456 c 0
 -0.4287109375 201.080376855 12.0299470595 215.295898438 29.1755904039 215.295898438 c 0
 45.5518210317 215.295898438 56.5080930386 202.244600492 60.51420832 177.964802663 c 0
 71.2429988988 112.940995829 141.273206111 59.2470703125 215.351600375 59.2470703125 c 0
 299.739082135 59.2470703125 366.950195312 128.206458609 366.950195312 214.789001986 c 0
 366.950195312 300.583869511 300.509675723 370.353515625 218.80859375 370.353515625 c 2
 147.703125 370.353515625 l 2
 131.349609375 370.353515625 118.072265625 383.630859375 118.072265625 399.984375 c 0
 118.072265625 416.337621139 131.349339879 429.614257812 147.703125 429.614257812 c 2
 218.80859375 429.614257812 l 2
 300.506396422 429.614257812 366.950195312 499.38051349 366.950195312 585.163534398 c 0
 366.950195312 671.746551344 299.733880194 740.721679688 215.35866422 740.721679688 c 0
 141.283773529 740.721679688 71.2413396743 687.019642598 60.513736916 622.000961808 c 0
 56.5080409773 597.722931436 45.5517076131 584.671875 29.1760500974 584.671875 c 0
 12.0309763954 584.671875 -0.4287109375 598.887279142 -0.4287109375 618.448295819 c 0
 -0.4287109375 710.962093625 121.617551632 799.982421875 248.453337126 799.982421875 c 0
 406.9601068 799.982421875 544.725585938 700.093066382 544.725585938 585.164862575 c 0
 544.725585938 508.372643967 484.584549243 438.494620326 385.348632812 399.984375 c 1
 484.58396077 361.473059568 544.725585938 291.590775674 544.725585938 214.794409592 c 0
 544.725585938 99.8670487933 406.966355219 -0.0146484375 248.455784702 -0.0146484375 c 0
EndSplineSet
Validated: 524289
EndChar
StartChar: uniE004
Encoding: 340 57348 84
Width: 680
VWidth: 951
Flags: W
HStem: 313.613 57.9277<408.034 473.756> 717.459 77.0029<277.494 414.992>
VStem: 133.935 169.919<475.606 659.862> 473.756 56.6377<553.751 648.521>
LayerCount: 2
Fore
SplineSet
3.33203125 162.119140625 m 2
 1.32807848309 158.18202062 0.289842867652 153.847730598 0.289842867652 149.419011141 c 0
 0.289842867652 139.157631466 5.79136198569 129.706072927 14.7138671875 124.638671875 c 2
 221.225585938 -1.0234375 l 2
 225.798956413 -4.00190179185 231.029587732 -5.56165496225 236.444495468 -5.56165496225 c 0
 248.060249727 -5.56165496225 258.591344918 1.51296842362 262.888671875 12.203125 c 2
 307.493164062 110.326171875 l 1
 308.350797772 109.644737599 309.251897678 109.010642333 310.192382812 108.426757812 c 2
 487.181640625 -1.306640625 l 2
 491.711904926 -4.11523962641 496.766162299 -5.57373774538 501.968774597 -5.57373774538 c 0
 517.669078355 -5.57373774538 530.393554688 7.11905857785 530.393554688 22.7802734375 c 2
 530.393554688 553.750976562 l 2
 530.393554688 689.237815975 443.739644252 794.461914062 332.163829763 794.461914062 c 0
 222.825020849 794.461914062 133.934570312 691.648543449 133.934570312 565.183986059 c 0
 133.934570312 418.952729736 264.687259698 322.156127277 473.755859375 313.61328125 c 1
 473.755859375 158.610351562 l 1
 340.610351562 241.16015625 l 2
 336.000841518 244.208617208 330.709123449 245.806960257 325.225934094 245.806960257 c 0
 313.613077793 245.806960257 303.088455541 238.741399174 298.787109375 228.057617188 c 2
 254.176757812 129.919921875 l 1
 253.31375031 130.605625907 252.412167119 131.240061256 251.477539062 131.819335938 c 2
 75.130859375 241.153320312 l 2
 70.5188983038 244.206506796 65.2235469124 245.807388647 59.736264695 245.807388647 c 0
 48.1179992298 245.807388647 37.5889458466 238.734567177 33.291015625 228.04296875 c 2
 3.33203125 162.119140625 l 2
383.091379272 717.458984375 m 0
 425.954031056 717.458984375 473.755859375 631.145776877 473.755859375 553.750976562 c 2
 473.755859375 371.541015625 l 1
 373.818485268 384.803301676 303.853515625 464.554217281 303.853515625 565.207468232 c 0
 303.853515625 637.999413007 345.207499092 717.458984375 383.091379272 717.458984375 c 0
EndSplineSet
Validated: 524293
EndChar
StartChar: uniE005
Encoding: 341 57349 85
Width: 621
VWidth: 951
Flags: W
HStem: 323.938 56.6729<351.602 415.9> 719.041 75.3359<223.889 359.371>
VStem: 83.4355 166.241<482.423 662.69> 415.9 55.4131<558.876 651.595>
LayerCount: 2
Fore
SplineSet
0.322265625 266.233398438 m 2
 0.322265625 183.119140625 l 2
 0.322265625 171.681926913 7.36079009338 161.409422856 18.03125 157.2734375 c 2
 433.610351562 -3.767578125 l 2
 436.828148998 -5.0145486899 440.188451511 -5.64865040322 443.578739552 -5.64865040322 c 0
 458.855726384 -5.64865040322 471.313476562 6.80508497233 471.313476562 22.0771484375 c 2
 471.313476562 558.875976562 l 2
 471.313476562 691.431032509 386.536126605 794.376953125 277.375255545 794.376953125 c 0
 170.402543402 794.376953125 83.435546875 693.78896584 83.435546875 570.061917206 c 0
 83.435546875 426.996738011 211.35736928 332.295946095 415.900390625 323.9375 c 1
 415.900390625 145.655273438 l 1
 38.0244140625 292.077148438 l 2
 34.8067407831 293.324070889 31.4465905891 293.958146111 28.0564568256 293.958146111 c 0
 12.7801188585 293.958146111 0.322265625 281.504534793 0.322265625 266.233398438 c 2
327.201029297 719.041015625 m 0
 369.135098131 719.041015625 415.900390625 634.59660941 415.900390625 558.875976562 c 2
 415.900390625 380.610351562 l 1
 318.127097971 393.586065209 249.676757812 471.610803516 249.676757812 570.084288732 c 0
 249.676757812 641.300686703 290.136577858 719.041015625 327.201029297 719.041015625 c 0
EndSplineSet
Validated: 524297
EndChar
StartChar: uniE006
Encoding: 342 57350 86
Width: 538
VWidth: 761
Flags: W
HStem: 0.0439477 21G<78.8607 89.3549> 592.584 47.4082<110.006 268.65>
VStem: -9.58008 118.517<423.427 513.159> 322.269 94.8145<411.376 539.481>
LayerCount: 2
Fore
SplineSet
266.962388012 218.266479723 m 1
 104.313992943 9.61623283346 l 2
 99.8420610611 3.48217860038 93.1174994944 0.0439477193273 85.5923239189 0.0439477193273 c 0
 72.1291167955 0.0439477193273 61.5371102501 10.3819369269 61.5371096091 23.52227025 c 0
 61.5371093826 28.1653352382 62.7790505367 32.5247910018 65.1879136656 36.3373047895 c 2
 206.183096711 260.824496621 l 1
 142.754882812 305.237304688 l 1
 169.947265625 344.072265625 l 1
 172.961419457 341.961743222 175.458938328 340.212971854 182.122244643 335.547303131 c 0
 207.237184628 317.961740582 218.5649461 310.029953337 231.429985519 301.021637039 c 1
 309.161132812 424.782226562 l 2
 318.139432793 438.552268306 322.268554688 453.311170635 322.268554688 471.632662117 c 0
 322.268554688 539.726363825 266.323202167 592.583984375 194.251737224 592.583984375 c 0
 140.202237402 592.583984375 83.1859546919 565.471841029 56.3805602491 527.024061214 c 1
 86.2666778732 523.655172964 108.936523417 498.256944145 108.936523427 468.142831696 c 0
 108.936523438 435.430681043 82.3877130546 408.8828125 49.6744018603 408.8828125 c 0
 14.5091492154 408.8828125 -9.580078125 438.361389537 -9.580078125 481.393969806 c 0
 -9.580078125 568.294483317 86.862497271 639.9921875 203.754794197 639.9921875 c 0
 324.678228177 639.9921875 417.083007812 564.955208329 417.083007812 466.759755316 c 0
 417.083007812 426.452632597 401.92490364 387.491891108 373.653320312 355.1328125 c 1
 296.147298833 255.70575999 l 1
 354.40625 214.912109375 l 1
 327.213867188 176.078125 l 1
 323.756627534 178.498897349 321.102566381 180.357280614 311.967613756 186.753607062 c 0
 289.946619895 202.172785601 278.989839135 209.84477549 266.962388012 218.266479723 c 1
EndSplineSet
Validated: 524289
EndChar
StartChar: uniE007
Encoding: 343 57351 87
Width: 642
VWidth: 761
Flags: W
HStem: -0.0146484 47.4092<202.095 320.293> 305.559 47.4082<264.642 385.727> 592.574 47.4082<209.13 320.133>
VStem: 0.474609 134.687<194.709 446.242> 159.736 47.4072<423.857 517.787> 387.23 134.711<195.366 312.692 355.947 444.599>
LayerCount: 2
Fore
SplineSet
159.736328125 517.787109375 m 1
 160.529839362 450.304784877 168.08627157 417.213277689 190.525390625 382.954101562 c 1
 151.983398438 334.775390625 l 2
 148.584942469 330.52698498 146.787821692 325.473836912 146.787821692 320.166456744 c 0
 146.787821692 306.970810771 157.344238437 296.279296875 170.373145237 296.279296875 c 0
 177.695814034 296.279296875 184.489165401 299.526220051 189.021484375 305.192382812 c 2
 222.423828125 346.947265625 l 1
 253.88804651 320.382293706 294.984485775 305.55859375 337.167586096 305.55859375 c 0
 354.121331911 305.55859375 371.02328407 307.967063959 387.23046875 312.692382812 c 1
 386.969688801 272.110472164 384.367025 225.31655123 380.827641847 197.574411835 c 0
 369.237401307 106.728619011 321.976389677 47.39453125 261.205796282 47.39453125 c 0
 200.345420878 47.39453125 153.158675956 106.881735402 141.49476087 198.311379077 c 0
 137.731312313 227.811830513 135.161546761 277.183756596 135.161546761 319.989007835 c 0
 135.161546761 365.123698092 137.902062988 413.496060372 142.503564164 449.581645235 c 0
 146.419396993 480.290127628 151.323689162 499.700799326 159.736328125 517.787109375 c 1
222.352539062 422.737304688 m 1
 210.926116665 446.59853491 207.143554688 472.364491991 207.143554688 526.337468029 c 0
 207.143554688 545.286623472 207.712581417 561.900213428 208.865234375 576.604492188 c 1
 225.167002025 587.132298361 243.002850817 592.57421875 261.205880293 592.57421875 c 0
 321.37533834 592.57421875 369.112892589 534.211975769 380.233894049 447.054785052 c 0
 382.781952012 427.085218938 385.349281258 392.161491709 386.463867188 362.307617188 c 1
 371.142640444 356.140153882 354.396965272 352.966796875 337.172740321 352.966796875 c 0
 305.082470519 352.966796875 274.758412026 363.927602935 251.897460938 383.790039062 c 1
 307.537109375 453.340820312 l 2
 310.935264667 457.588917243 312.73223403 462.64178181 312.73223403 467.948894235 c 0
 312.73223403 481.144288433 302.17609903 491.8359375 289.147953263 491.8359375 c 0
 281.825604404 491.8359375 275.032004591 488.588812711 270.498046875 482.921875 c 2
 222.352539062 422.737304688 l 1
261.205839579 -0.0146484375 m 0
 405.319460604 -0.0146484375 521.94140625 143.113179171 521.94140625 319.98100102 c 0
 521.94140625 496.85194606 405.321345817 639.982421875 261.210176046 639.982421875 c 0
 117.096555021 639.982421875 0.474609375 496.854594266 0.474609375 319.986772417 c 0
 0.474609375 143.115827377 117.094669808 -0.0146484375 261.205839579 -0.0146484375 c 0
EndSplineSet
Validated: 524297
EndChar
StartChar: uniE008
Encoding: 344 57352 88
Width: 524
VWidth: 761
Flags: W
HStem: 118.5 106.665<119.604 285.47>
VStem: 0.669922 50.0057<0.508937 58.424> 356.221 47.4092<616.278 639.913>
LayerCount: 2
Fore
SplineSet
202.148433945 225.165039062 m 0
 95.5310435009 225.165039062 0.669921875 139.087141506 0.669921875 42.3414921288 c 0
 0.669921875 14.6322926201 8.86681443483 -0.0146484375 24.3737609295 -0.0146484375 c 0
 35.3420019476 -0.0146484375 43.3925551639 7.694469734 50.6756119881 25.1717049088 c 0
 73.3646526574 79.6188565982 136.471335229 118.5 202.153644215 118.5 c 0
 267.834076742 118.5 330.93402154 79.6211675165 353.624025758 25.1720009184 c 0
 360.907418136 7.69405595147 368.957196838 -0.0146484375 379.925067195 -0.0146484375 c 0
 393.00814081 -0.0146484375 403.629882812 10.606773609 403.629882812 23.689453125 c 2
 403.629882812 616.278320312 l 2
 403.629882812 629.360949246 393.008191391 639.982421875 379.925292969 639.982421875 c 0
 366.842394546 639.982421875 356.220703125 629.360949245 356.220703125 616.278320312 c 2
 356.220703125 256.151367188 l 1
 0.671875 390.873046875 l 1
 0.671875 319.760742188 l 1
 356.220703125 185.038085938 l 1
 356.220703125 153.458984375 l 1
 317.763012253 199.057279728 261.666191121 225.165039062 202.148433945 225.165039062 c 0
EndSplineSet
Validated: 524297
EndChar
StartChar: uniE009
Encoding: 345 57353 89
Width: 558
VWidth: 761
Flags: W
HStem: -0.0146484 47.4092<103.957 241.068> 296.279 47.4092<95.6063 242.347> 592.574 47.4082<103.96 241.067>
VStem: 0.736328 48.7546<97.758 171.959 468.008 542.207> 294.64 142.221<102.202 240.749 399.215 537.76>
LayerCount: 2
Fore
SplineSet
199.844423395 -0.0146484375 m 0
 98.3716432403 -0.0146484375 0.736328125 71.1984436233 0.736328125 145.210499879 c 0
 0.736328125 160.861082435 10.7033376852 172.233398438 24.4199373579 172.233398438 c 0
 37.5210309085 172.233398438 46.2859066575 161.792342932 49.4909183076 142.36788623 c 0
 58.073917348 90.3493254789 114.098041363 47.39453125 173.360654225 47.39453125 c 0
 240.8707547 47.39453125 294.639648438 102.561846157 294.639648438 171.827749049 c 0
 294.639648438 240.463461503 241.487355786 296.279296875 176.126953125 296.279296875 c 2
 119.2421875 296.279296875 l 2
 106.159179688 296.279296875 95.537109375 306.901367188 95.537109375 319.984375 c 0
 95.537109375 333.067113327 106.15891019 343.688476562 119.2421875 343.688476562 c 2
 176.126953125 343.688476562 l 2
 241.484776033 343.688476562 294.639648438 399.501450601 294.639648438 468.127604859 c 0
 294.639648438 537.393919582 240.866607118 592.57421875 173.36678454 592.57421875 c 0
 114.107218767 592.57421875 58.0727815105 549.612497549 49.4905731339 497.598066257 c 0
 46.2858664594 478.175210528 37.5209223401 467.734375 24.4203970576 467.734375 c 0
 10.7044838086 467.734375 0.736328125 479.106431345 0.736328125 494.754074022 c 0
 0.736328125 568.765655058 98.3731672303 639.982421875 199.841643722 639.982421875 c 0
 326.647843753 639.982421875 436.860351562 560.07129974 436.860351562 468.128688691 c 0
 436.860351562 406.694802469 388.747339144 350.792370941 309.358398438 319.984375 c 1
 388.747394077 289.174666657 436.860351562 233.269407238 436.860351562 171.832398103 c 0
 436.860351562 79.8904478386 326.653158943 -0.0146484375 199.844423395 -0.0146484375 c 0
EndSplineSet
Validated: 524289
EndChar
StartChar: uniE00A
Encoding: 346 57354 90
Width: 544
VWidth: 759
Flags: W
HStem: 249.779 46.3428<319.021 378.723> 572.856 61.6016<221.714 339.057>
VStem: 106.866 135.935<370.321 535.213> 378.723 45.3105<441.89 525.815>
LayerCount: 2
Fore
SplineSet
2.3837890625 128.583984375 m 2
 0.780545872431 125.434416162 -0.050085580085 121.967056103 -0.050085580085 118.424099749 c 0
 -0.050085580085 110.215215349 4.35117046744 102.653896201 11.4892578125 98.599609375 c 2
 176.69921875 -1.9296875 l 2
 180.357779089 -4.31242695951 184.542241123 -5.56022116227 188.874167344 -5.56022116227 c 0
 198.16679305 -5.56022116227 206.591634587 0.0994170668982 210.029296875 8.6513671875 c 2
 245.712890625 87.1494140625 l 1
 246.39937168 86.6041241469 247.119880618 86.0970631304 247.872070312 85.6298828125 c 2
 389.463867188 -2.15625 l 2
 393.088107332 -4.40314699577 397.131533857 -5.56995550536 401.293629549 -5.56995550536 c 0
 413.853804777 -5.56995550536 424.033203125 4.584223595 424.033203125 17.11328125 c 2
 424.033203125 441.889648438 l 2
 424.033203125 550.278773658 354.709992989 634.458007812 265.449474294 634.458007812 c 0
 177.978578767 634.458007812 106.866210938 552.207319081 106.866210938 451.035868591 c 0
 106.866210938 334.051364151 211.467901539 256.614253466 378.72265625 249.779296875 c 1
 378.72265625 125.77734375 l 1
 272.20703125 191.817382812 l 2
 268.519297841 194.25601626 264.285974118 195.53460456 259.899548841 195.53460456 c 0
 250.60927133 195.53460456 242.18950094 189.882157792 238.748046875 181.334960938 c 2
 203.059570312 102.825195312 l 1
 202.367695489 103.37476964 201.646733802 103.88214928 200.900390625 104.344726562 c 2
 59.8232421875 191.811523438 l 2
 56.1335366525 194.254063597 51.8971084288 195.534772795 47.5071920788 195.534772795 c 0
 38.212391513 195.534772795 29.7894330115 189.876556286 26.3515625 181.323242188 c 2
 2.3837890625 128.583984375 l 2
306.19139427 572.856445312 m 0
 340.481352156 572.856445312 378.72265625 503.805653022 378.72265625 441.889648438 c 2
 378.72265625 296.122070312 l 1
 298.773071164 306.731353733 242.80078125 370.532318156 242.80078125 451.054925918 c 0
 242.80078125 509.288595501 275.884153181 572.856445312 306.19139427 572.856445312 c 0
EndSplineSet
Validated: 524293
EndChar
StartChar: uniE00B
Encoding: 347 57355 91
Width: 497
VWidth: 759
Flags: WO
HStem: 258.022 45.3389<274.125 332.534> 574.105 60.2686<178.925 294.466>
VStem: 66.5615 132.993<375.955 537.277> 332.534 44.3301<445.974 528.522>
LayerCount: 2
Fore
SplineSet
0.0712890625 211.859375 m 2
 0.0712890625 145.368164062 l 2
 0.0712890625 136.218111176 5.70180539284 128.00035959 14.23828125 124.69140625 c 2
 346.702148438 -4.1416015625 l 2
 349.276292182 -5.13898860599 351.964396382 -5.64617254951 354.676461586 -5.64617254951 c 0
 366.898284423 -5.64617254951 376.864257812 4.31645726327 376.864257812 16.5341796875 c 2
 376.864257812 445.973632812 l 2
 376.864257812 552.017785667 309.042841029 634.374023438 221.714122733 634.374023438 c 0
 136.135644179 634.374023438 66.5615234375 553.903657874 66.5615234375 454.922436404 c 0
 66.5615234375 340.470760057 168.89966163 264.709675502 332.534179688 258.022460938 c 1
 332.534179688 115.397460938 l 1
 30.2333984375 232.534179688 l 2
 27.6590818811 233.531807948 24.9707753509 234.039115269 22.2584925294 234.039115269 c 0
 10.0372957363 234.039115269 0.0712890625 224.0764609 0.0712890625 211.859375 c 2
261.574449378 574.10546875 m 0
 295.121686191 574.10546875 332.534179688 506.549807843 332.534179688 445.973632812 c 2
 332.534179688 303.361328125 l 1
 254.315158243 313.742181525 199.5546875 376.161834358 199.5546875 454.940261316 c 0
 199.5546875 511.91311256 231.922819144 574.10546875 261.574449378 574.10546875 c 0
EndSplineSet
Validated: 524297
EndChar
StartChar: u10400
Encoding: 256 66560 0
Width: 640
VWidth: 952
Flags: W
HStem: -0.0146484 59.2617<139.929 272.077> 444.426 59.2598<140.687 274.343> 740.722 59.2607<141.081 271.825>
VStem: -0.0195312 59.2598<152.128 350.748 555.308 650.006> 355.523 177.785<200.587 544.608>
LayerCount: 2
Fore
SplineSet
356.234375 427.459960938 m 1
 317.267909148 476.16153955 263.793783246 503.685546875 208.141964937 503.685546875 c 0
 92.8140932347 503.685546875 -0.01953125 391.36913116 -0.01953125 251.837649397 c 0
 -0.01953125 108.510406255 96.1115348785 -0.0146484375 223.070242503 -0.0146484375 c 0
 391.028334679 -0.0146484375 533.30859375 183.431782945 533.30859375 399.985455484 c 0
 533.30859375 616.779670852 390.847017747 799.982421875 222.26414758 799.982421875 c 0
 108.570079729 799.982421875 18.6237993798 713.763060719 2.77396792828 589.586805778 c 0
 2.32239508932 586.048936991 2.1845703125 584.523799003 2.1845703125 583.064664298 c 0
 2.1845703125 566.752009675 15.4796640302 553.459960938 31.7960556034 553.459960938 c 0
 49.1738539993 553.459960938 59.8174327636 568.403688093 63.6113414297 598.129048401 c 0
 73.5576274948 676.058424944 138.752560752 740.721679688 207.376407332 740.721679688 c 0
 281.476579188 740.721679688 342.074860273 669.402818809 355.146703315 566.809004402 c 0
 358.085145335 543.746764883 360.16015625 505.567675722 360.16015625 474.564156343 c 0
 360.16015625 459.239744148 359.722287634 451.987345857 358.316144225 444.021867705 c 0
 356.752353048 435.163351307 356.309332007 431.638814052 356.234375 427.459960938 c 1
59.240234375 251.841881998 m 0
 59.240234375 357.616325599 126.014050774 444.42578125 207.375732213 444.42578125 c 0
 288.74595101 444.42578125 355.5234375 357.616834549 355.5234375 251.837726081 c 0
 355.5234375 146.062205782 288.740614568 59.2470703125 207.372454459 59.2470703125 c 0
 126.016354333 59.2470703125 59.240234375 146.066360816 59.240234375 251.841881998 c 0
EndSplineSet
Validated: 524297
EndChar
StartChar: u10401
Encoding: 257 66561 1
Width: 666
VWidth: 952
Flags: W
HStem: -0.0146484 59.2617<255.277 407.307> 370.354 59.2607<254.537 328.224 399.33 427.835> 740.722 59.2607<255.282 407.306>
VStem: 2.30664 177.775<137.313 291.357 508.607 662.648> 486.519 60.9424<130.41 213.441 586.526 669.555>
LayerCount: 2
Fore
SplineSet
517.856840401 584.671875 m 0
 535.001409302 584.671875 547.460896372 598.887296389 547.460896372 618.448075263 c 0
 547.460896372 710.962218512 425.413340991 799.982421875 298.575560406 799.982421875 c 0
 140.075496978 799.982421875 2.306640625 700.091040341 2.306640625 585.168185291 c 0
 2.306640625 508.380005989 62.4524934543 438.494764002 161.68359375 399.983398438 c 1
 62.4518979173 361.472420721 2.306640625 291.587524189 2.306640625 214.797693361 c 0
 2.306640625 99.8712755157 140.06387329 -0.0146484375 298.564136949 -0.0146484375 c 0
 425.412977763 -0.0146484375 547.460918464 89.0006827165 547.460918464 181.517537214 c 0
 547.460918464 201.080771559 535.002750698 215.295898438 517.857490048 215.295898438 c 0
 501.481319329 215.295898438 490.525058683 202.24444161 486.518564358 177.963942867 c 0
 475.788998268 112.939711002 405.757513592 59.2470703125 331.675764036 59.2470703125 c 0
 247.290857661 59.2470703125 180.08203125 128.206017687 180.08203125 214.788310947 c 0
 180.08203125 300.585404168 246.520794279 370.353515625 328.223632812 370.353515625 c 2
 399.330078125 370.353515625 l 2
 415.682835983 370.353515625 428.959960938 383.631078176 428.959960938 399.984375 c 0
 428.959960938 416.337402347 415.683105472 429.614257812 399.330078125 429.614257812 c 2
 328.223632812 429.614257812 l 2
 246.524303576 429.614257812 180.08203125 499.378897343 180.08203125 585.163504859 c 0
 180.08203125 671.747283831 247.295250111 740.721679688 331.668217988 740.721679688 c 0
 405.747287297 740.721679688 475.790565163 687.021488081 486.519010411 622.00197557 c 0
 490.525096499 597.723176684 501.48138826 584.671875 517.856840401 584.671875 c 0
EndSplineSet
Validated: 524297
EndChar
StartChar: u10402
Encoding: 258 66562 2
Width: 683
VWidth: 952
Flags: W
HStem: -0.0146484 59.2617<250.94 402.164> 370.354 59.2607<249.734 323.421 394.527 423.032> 740.722 59.2607<250.945 402.212>
VStem: -2.49609 177.775<137.271 291.357 508.607 662.69> 500.975 59.2613<185.911 616.469>
LayerCount: 2
Fore
SplineSet
-2.49609375 214.797693361 m 0
 -2.49609375 99.6674061879 135.525531494 -0.0146484375 294.9370666 -0.0146484375 c 0
 432.622296301 -0.0146484375 525.134696606 77.0519804683 547.087992359 210.037428468 c 0
 554.856369733 257.095563013 560.236338293 334.843784355 560.236338293 400.049786067 c 0
 560.236338293 465.578049017 555.403954854 539.571473531 548.323431287 582.460142442 c 0
 525.361644941 721.5459661 433.994505271 799.982421875 294.941400065 799.982421875 c 0
 135.535551086 799.982421875 -2.49609375 700.293703989 -2.49609375 585.168185291 c 0
 -2.49609375 508.380005989 57.6497590793 438.494764002 156.880859375 399.983398438 c 1
 57.6491635424 361.472420721 -2.49609375 291.587524189 -2.49609375 214.797693361 c 0
323.420898438 429.614257812 m 2
 241.721569201 429.614257812 175.279296875 499.378897342 175.279296875 585.163504859 c 0
 175.279296875 671.747473314 242.49270427 740.721679688 326.866325245 740.721679688 c 0
 409.308581854 740.721679688 472.496601188 677.879888249 488.69203877 579.782662356 c 0
 495.874419335 536.278335589 500.974996391 461.590636733 500.974996391 399.923436674 c 0
 500.974996391 337.9077946 496.416296969 266.956929333 489.893327403 227.450121243 c 0
 472.750571664 123.62385712 410.353436153 59.2470703125 326.862690388 59.2470703125 c 0
 242.485807779 59.2470703125 175.279296875 128.208345308 175.279296875 214.788310947 c 0
 175.279296875 300.585404168 241.718059904 370.353515625 323.420898438 370.353515625 c 2
 394.52734375 370.353515625 l 2
 410.880101607 370.353515625 424.157226562 383.631078177 424.157226562 399.984375 c 0
 424.157226562 416.337402346 410.880371096 429.614257812 394.52734375 429.614257812 c 2
 323.420898438 429.614257812 l 2
EndSplineSet
Validated: 524297
EndChar
StartChar: u10403
Encoding: 259 66563 3
Width: 770
VWidth: 952
Flags: W
HStem: -0.0146484 59.2617<258.953 390.129> 381.952 59.2612<338.662 480.184> 740.722 59.2607<263.458 389.938>
VStem: -1.3584 168.358<259.678 540.986> 197.718 59.2598<525.168 567.177> 482.086 168.389<262.379 390.869 446.274 537.584>
LayerCount: 2
Fore
SplineSet
324.554730715 59.2470703125 m 0
 248.479970448 59.2470703125 189.49682831 133.604827 174.916831502 247.889758675 c 0
 170.21227486 284.766305459 167 346.480490231 167 399.987827307 c 0
 167 456.407203214 170.425795707 516.873373664 176.177987093 561.981646973 c 0
 181.072717221 600.365770437 187.202742096 624.628745668 197.717773438 647.237304688 c 1
 198.15080166 610.515653923 200.446559246 579.791902636 204.392468112 557.910948806 c 0
 223.022652829 454.602376445 311.840051612 381.952148438 419.508144555 381.952148438 c 0
 440.700468904 381.952148438 461.827392581 384.962619157 482.0859375 390.869140625 c 1
 481.76044847 340.149725055 478.506986465 281.655997884 474.082492403 246.97585613 c 0
 459.594456708 133.415497661 400.518599581 59.2470703125 324.554730715 59.2470703125 c 0
324.556145472 740.721679688 m 0
 399.768336725 740.721679688 459.439724273 667.766809953 473.340691609 558.816119454 c 0
 476.525650739 533.853576344 479.734994234 490.197846098 481.127929688 452.888671875 c 1
 461.974092456 445.178745915 441.043336907 441.21288284 419.508646662 441.213334178 c 0
 340.029775567 441.214999947 276.434797159 492.38116463 262.946938293 567.177087198 c 0
 259.203329419 587.936992997 256.977539062 622.819105727 256.977539062 660.728241418 c 0
 256.977539062 682.218064883 257.70966676 702.647279327 259.12890625 720.759765625 c 1
 279.50678859 733.919204021 301.802606584 740.721679688 324.556145472 740.721679688 c 0
324.55521061 -0.0146484375 m 0
 504.69710158 -0.0146484375 650.474609375 178.895423885 650.474609375 399.980275925 c 0
 650.474609375 621.068906875 504.699189523 799.982421875 324.56026597 799.982421875 c 0
 144.418568704 799.982421875 -1.3583984375 621.072662916 -1.3583984375 399.987615888 c 0
 -1.3583984375 178.8984972 144.416348861 -0.0146484375 324.55521061 -0.0146484375 c 0
EndSplineSet
Validated: 524329
EndChar
StartChar: u10404
Encoding: 260 66564 4
Width: 770
VWidth: 952
Flags: W
HStem: -0.0146484 59.2617<258.953 390.165> 740.722 59.2607<258.948 390.161>
VStem: -1.3584 168.358<259.678 541.145> 482.115 168.359<258.822 540.294>
LayerCount: 2
Fore
SplineSet
474.198090851 552.087107643 m 0
 478.903139286 515.207865968 482.115234375 453.496046156 482.115234375 399.980360768 c 0
 482.115234375 346.446506779 478.915774361 284.859552795 474.224343213 248.087244823 c 0
 459.623738238 133.644993459 400.657957482 59.2470703125 324.554730715 59.2470703125 c 0
 248.479970448 59.2470703125 189.49682831 133.604827 174.916831502 247.889758675 c 0
 170.21227486 284.766305459 167 346.480490231 167 399.987827307 c 0
 167 453.515307217 170.199762396 515.102780176 174.891430605 551.87825191 c 0
 189.492831279 666.330803508 248.44883755 740.721679688 324.552987023 740.721679688 c 0
 400.637548934 740.721679688 459.617253164 666.375035646 474.198090851 552.087107643 c 0
324.55521061 -0.0146484375 m 0
 504.69710158 -0.0146484375 650.474609375 178.895423885 650.474609375 399.980275925 c 0
 650.474609375 621.068906875 504.699189523 799.982421875 324.56026597 799.982421875 c 0
 144.418568704 799.982421875 -1.3583984375 621.072662916 -1.3583984375 399.987615888 c 0
 -1.3583984375 178.8984972 144.416348861 -0.0146484375 324.55521061 -0.0146484375 c 0
EndSplineSet
Validated: 524297
EndChar
StartChar: u10405
Encoding: 261 66565 5
Width: 772
VWidth: 952
Flags: W
VStem: -0.358398 169.358<258.333 540.195> 484.115 167.359<258.197 539.34>
LayerCount: 2
Fore
SplineSet
475.617988145 547.796197493 m 0
 480.670906529 508.189802708 484.115234375 448.296646595 484.115234375 400.038226189 c 0
 484.115234375 351.047897506 480.571247448 288.997715187 475.505045801 249.286041779 c 0
 462.472914644 147.133033971 418.763677925 79.1520897818 355.1875 62.15625 c 1
 355.1875 735.8125 l 1
 418.857621223 718.794896844 462.493446323 650.670565385 475.617988145 547.796197493 c 0
325.56026597 798.982421875 m 0
 145.418568704 798.982421875 -0.3583984375 620.072662916 -0.3583984375 398.987615888 c 0
 -0.3583984375 177.8984972 145.416348861 -1.0146484375 325.55521061 -1.0146484375 c 0
 505.69710158 -1.0146484375 651.474609375 177.895423885 651.474609375 398.980275925 c 0
 651.474609375 620.068906875 505.699189523 798.982421875 325.56026597 798.982421875 c 0
295.927734375 735.813476562 m 1
 295.927734375 62.15625 l 1
 233.06879184 78.9591018805 188.810553669 145.81865264 176.459778449 242.632793884 c 0
 171.874004283 278.579346217 169 339.241226398 169 400.087043046 c 0
 169 460.043051058 171.793691229 518.758279376 176.34328323 554.421404329 c 0
 188.788785421 651.978613778 232.96410693 718.986097054 295.927734375 735.813476562 c 1
EndSplineSet
Validated: 524297
EndChar
StartChar: u10406
Encoding: 262 66566 6
Width: 474
VWidth: 952
Flags: W
HStem: -0.015625 21G<147.211 206.472>
VStem: 147.211 59.2607<-0.015625 395.61 571.025 799.984>
LayerCount: 2
Fore
SplineSet
-0.931640625 585.16796875 m 2
 -0.931640625 601.500599837 12.3906844934 614.819335938 28.7277167567 614.819335938 c 0
 32.3532380764 614.819335938 35.9469980673 614.141194601 39.388671875 612.807617188 c 2
 147.2109375 571.025390625 l 1
 147.2109375 740.723632812 l 1
 147.2109375 799.984375 l 1
 206.471679688 799.984375 l 1
 206.471679688 548.061523438 l 1
 335.67578125 497.994140625 l 2
 347.086512396 493.572507457 354.615234375 482.585324918 354.615234375 470.354492188 c 2
 354.615234375 381.46875 l 2
 354.615234375 365.136372225 341.292217217 351.817382812 324.954900431 351.817382812 c 0
 321.329536524 351.817382812 317.735728836 352.495471036 314.29296875 353.829101562 c 2
 206.471679688 395.610351562 l 1
 206.471679688 59.244140625 l 1
 206.471679688 -0.015625 l 1
 147.2109375 -0.015625 l 1
 147.2109375 418.57421875 l 1
 18.0068359375 468.642578125 l 2
 6.59652196597 473.064049638 -0.931640625 484.050982336 -0.931640625 496.282226562 c 2
 -0.931640625 585.16796875 l 2
EndSplineSet
Validated: 524289
EndChar
StartChar: u10407
Encoding: 263 66567 7
Width: 654
VWidth: 913
Flags: W
HStem: 148.129 133.332<160.567 344.311>
VStem: -0.350586 62.508<2.60073 64.2266> 444.089 59.2607<770.352 798.858>
LayerCount: 2
Fore
SplineSet
503.349609375 770.3515625 m 2
 503.349609375 786.704968726 490.072375023 799.982421875 473.719238281 799.982421875 c 0
 457.36610154 799.982421875 444.088867188 786.704968726 444.088867188 770.3515625 c 2
 444.088867188 191.828125 l 1
 396.016006371 248.826277991 325.895150373 281.4609375 251.498240153 281.4609375 c 0
 118.226676782 281.4609375 -0.3505859375 173.862930126 -0.3505859375 52.9311905204 c 0
 -0.3505859375 18.2945969883 9.89580926978 -0.0146484375 29.279471333 -0.0146484375 c 0
 42.9899988172 -0.0146484375 53.0539298502 9.62239392129 62.1574370401 31.4687100187 c 0
 90.5180300654 99.5275874401 169.401212903 148.12890625 251.504718442 148.12890625 c 0
 333.606028863 148.12890625 412.48070219 99.5302277454 440.842747169 31.4681633442 c 0
 449.946493827 9.62136803243 460.008874082 -0.0146484375 473.718575542 -0.0146484375 c 0
 490.072226538 -0.0146484375 503.349609375 13.2626562261 503.349609375 29.6162109375 c 2
 503.349609375 770.3515625 l 2
EndSplineSet
Validated: 524297
EndChar
StartChar: u10408
Encoding: 264 66568 8
Width: 642
VWidth: 913
Flags: W
VStem: 432.873 57.9209<770.805 798.851>
LayerCount: 2
Fore
SplineSet
-1.5107421875 283.92578125 m 2
 -1.5107421875 197.05078125 l 2
 -1.5107421875 185.096888544 5.84799170529 174.358090502 17.0009765625 170.036132812 c 2
 451.384765625 1.7080078125 l 2
 454.748003225 0.404602950054 458.26022922 -0.258196370763 461.803837018 -0.258196370763 c 0
 477.771986109 -0.258196370763 490.793945312 12.7596053112 490.793945312 28.72265625 c 2
 490.793945312 770.8046875 l 2
 490.793945312 786.787925839 477.817542919 799.763671875 461.833496094 799.763671875 c 0
 445.849449268 799.763671875 432.873046875 786.787925839 432.873046875 770.8046875 c 2
 432.873046875 157.891601562 l 1
 37.8984375 310.939453125 l 2
 34.5353110611 312.242573146 31.023275292 312.905224171 27.4798944594 312.905224171 c 0
 11.5115077323 312.905224171 -1.5107421875 299.88800234 -1.5107421875 283.92578125 c 2
EndSplineSet
Validated: 524297
EndChar
StartChar: u10409
Encoding: 265 66569 9
Width: 704
VWidth: 913
Flags: W
VStem: 493.262 59.2598<770.349 798.855>
LayerCount: 2
Fore
SplineSet
552.521484375 770.348632812 m 2
 552.521484375 786.702417934 539.244847702 799.979492188 522.891601562 799.979492188 c 0
 506.538355423 799.979492188 493.26171875 786.702417934 493.26171875 770.348632812 c 2
 493.26171875 171.732421875 l 1
 353.959960938 258.098632812 l 2
 349.134408423 261.291977112 343.595597893 262.966138856 337.856263769 262.966138856 c 0
 325.704068612 262.966138856 314.68736123 255.567959236 310.189453125 244.38671875 c 2
 263.517578125 141.713867188 l 1
 262.615784035 142.429825185 261.67230577 143.093718086 260.693359375 143.701171875 c 2
 76.1787109375 258.098632812 l 2
 71.3578516876 261.291351971 65.818884584 262.96571934 60.0779240573 262.96571934 c 0
 47.916763187 262.96571934 36.8990892902 255.563570613 32.40234375 244.372070312 c 2
 1.05078125 175.385742188 l 2
 -1.04037733585 171.270105006 -2.12360715819 166.741505757 -2.12360715819 162.11475143 c 0
 -2.12360715819 151.375734747 3.63696945096 141.483502478 12.9775390625 136.182617188 c 2
 229.047851562 4.703125 l 2
 233.830034826 1.59059404868 239.300884479 -0.0395560200844 244.964481149 -0.0395560200844 c 0
 257.117424948 -0.0395560200844 268.131382115 7.35722306495 272.629882812 18.5400390625 c 2
 319.302734375 121.211914062 l 1
 320.21012627 120.49151182 321.152993858 119.828374658 322.126953125 119.225585938 c 2
 507.2421875 4.4541015625 l 2
 512.028782242 1.48567071453 517.348638243 -0.0547091362198 522.813816563 -0.0547091362198 c 0
 539.208357744 -0.0547091362198 552.521484375 13.2406365433 552.521484375 29.61328125 c 2
 552.521484375 770.348632812 l 2
EndSplineSet
Validated: 524297
EndChar
StartChar: u1040A
Encoding: 266 66570 10
Width: 653
VWidth: 913
Flags: W
HStem: 518.507 133.332<158.186 341.924>
VStem: -0.859375 59.2607<1.11024 29.6162> 440.334 62.5065<735.741 797.367>
LayerCount: 2
Fore
SplineSet
250.985702371 651.838867188 m 0
 168.88784163 651.838867188 90.0485616792 700.425071216 61.6811272364 768.50140795 c 0
 52.5841603274 790.332362872 42.4972157535 799.981398528 28.7719701315 799.981865484 c 0
 12.4182022347 799.982421867 -0.859375 786.705311611 -0.859375 770.3515625 c 2
 -0.859375 29.6162109375 l 2
 -0.859375 13.2626953125 12.41796875 -0.0146484375 28.771484375 -0.0146484375 c 0
 45.1247305144 -0.0146484375 58.4013671875 13.2624258163 58.4013671875 29.6162109375 c 2
 58.4013671875 608.139648438 l 1
 106.474242991 551.141477678 176.595109605 518.506835938 250.992128244 518.506835938 c 0
 384.263588948 518.506835938 502.840820312 626.104929374 502.840820312 747.036704525 c 0
 502.840820312 781.673202096 492.594415924 799.982421875 473.210763042 799.982421875 c 0
 459.500727556 799.982421875 449.437570849 790.346074879 440.334317841 768.500368759 c 0
 411.973406591 700.440727671 333.089671444 651.838867188 250.985702371 651.838867188 c 0
EndSplineSet
Validated: 524329
EndChar
StartChar: u1040B
Encoding: 267 66571 11
Width: 516
VWidth: 951
Flags: W
HStem: 313.617 57.9277<274.012 339.732> 717.463 77.0029<143.475 280.964>
VStem: -0.0820312 169.909<475.61 659.863> 339.732 56.6387<553.755 648.524>
LayerCount: 2
Fore
SplineSet
249.062371679 717.462890625 m 0
 291.91335583 717.462890625 339.73046875 631.238621011 339.73046875 553.969321697 c 0
 339.73046875 553.755380492 339.730688227 553.66581496 339.731445312 553.570800781 c 0
 339.732202398 553.475786603 339.732421875 553.43441511 339.732421875 553.38671875 c 2
 339.732421875 371.544921875 l 1
 239.79678413 384.807789712 169.827148438 464.561978299 169.827148438 565.209746418 c 0
 169.827148438 637.993746693 211.184293428 717.462890625 249.062371679 717.462890625 c 0
339.732421875 313.6171875 m 1
 339.732421875 -5.537109375 l 1
 396.37109375 -5.537109375 l 1
 396.37109375 51.1015625 l 1
 396.368164062 553.754882812 l 2
 396.368164062 689.240478139 309.715363586 794.465820312 198.14332194 794.465820312 c 0
 88.8076115295 794.465820312 -0.08203125 691.650518762 -0.08203125 565.186020937 c 0
 -0.08203125 418.955270227 130.667090739 322.160081591 339.732421875 313.6171875 c 1
EndSplineSet
Validated: 524297
EndChar
StartChar: u1040C
Encoding: 268 66572 12
Width: 598
VWidth: 952
Flags: W
HStem: 363.788 61.5254<139.311 182.165>
VStem: -5.41992 59.083<99.3044 270.028> 182.165 129.984<146.18 349.724 419.808 425.313> 418.438 59.1191<65.2399 255.79>
LayerCount: 2
Fore
SplineSet
182.165039062 363.788085938 m 1
 182.163085938 253.44921875 l 2
 182.163085938 162.350344587 154.416419239 69.4392737606 124.891601562 61.6728515625 c 1
 82.0029345886 71.533128099 53.6630859375 119.679411759 53.6630859375 182.682259912 c 0
 53.6630859375 264.913147546 106.957297359 340.024007321 182.165039062 363.788085938 c 1
418.438476562 159.933564491 m 0
 418.438476562 132.406793466 413.436361064 105.95101425 403.944860236 83.2780147041 c 0
 393.721208124 58.8560751304 392.388671875 54.9077160162 392.388671875 49.0365584793 c 0
 392.388671875 33.9397720045 406.006420808 20.95703125 421.841617074 20.95703125 c 0
 434.77497454 20.95703125 444.495333725 29.4382396748 454.325868369 49.3001922893 c 0
 468.754083228 78.4514572241 477.557617188 120.767011432 477.557617188 160.967203628 c 0
 477.557617188 272.546615601 410.124530534 376.168018469 312.149414062 415.142578125 c 1
 312.149414062 484.513078476 312.148605052 643.908039452 312.147460938 799.956054688 c 1
 182.165039062 799.956054688 l 1
 182.165039062 425.313476562 l 1
 74.0738990178 400.778586799 -5.419921875 297.611685256 -5.419921875 181.866137151 c 0
 -5.419921875 75.0799547003 56.8415518095 -0.0439453125 145.344213245 -0.0439453125 c 0
 258.733938747 -0.0439453125 309.589257954 106.618271465 312.109375 349.723632812 c 1
 376.828594278 313.082879047 418.438476562 238.812126398 418.438476562 159.933564491 c 0
EndSplineSet
Validated: 524297
EndChar
StartChar: u1040D
Encoding: 269 66573 13
Width: 678
VWidth: 952
Flags: W
HStem: -0.0146484 59.2617<252.941 406.573> 372.636 59.9834<249.135 352.781 445.027 502.56>
VStem: -0.495117 177.774<137.271 290.59 509.374 663.143> 291.828 59.2979<531.87 678.74> 502.56 59.6765<185.725 376.253 432.619 620.006>
LayerCount: 2
Fore
SplineSet
208.212890625 75.5673828125 m 1029
502.559570312 432.619140625 m 5
 424.915149992 446.924786843 364.898635624 509.928579693 354.991190428 587.53262961 c 4
 352.618625158 606.116701488 351.125976562 641.33865554 351.125976562 678.739887358 c 4
 351.125976562 700.198657006 351.627863102 720.561931833 352.599609375 738.530273438 c 5
 425.591558312 726.65239352 475.777831112 670.115106311 490.047188578 583.688863065 c 4
 496.027836048 547.465445557 501.238120024 484.55846504 502.559570312 432.619140625 c 5
-0.4951171875 214.797898536 m 4
 -0.4951171875 99.6671877494 137.525858866 -0.0146484375 296.937580042 -0.0146484375 c 4
 434.614741724 -0.0146484375 527.13432175 77.0437953397 549.081746771 209.993190878 c 4
 556.816660578 256.848442195 562.212474491 334.263251975 562.235999773 398.719861281 c 4
 562.236246 399.394494343 562.236760681 399.651786624 562.238057568 399.748566573 c 0
 562.239789848 399.877837592 562.240234375 399.92594228 562.240234375 399.984130655 c 4
 562.240234375 400.040722924 562.23979542 400.089721302 562.23828125 400.202148438 c 0
 562.23676708 400.314575573 562.236274439 400.550710675 562.23608925 401.252829153 c 4
 562.219011548 466.000563278 557.364527284 539.812479722 550.314872797 582.513656225 c 4
 527.360030675 721.555756344 435.984901282 799.982421875 296.941400065 799.982421875 c 4
 137.535945695 799.982421875 -0.4951171875 700.293974183 -0.4951171875 585.168567134 c 4
 -0.4951171875 508.380018467 59.6510728582 438.494240557 158.881835938 399.983398438 c 5
 59.6499736873 361.472748709 -0.4951171875 291.588122972 -0.4951171875 214.797898536 c 4
293.1171875 737.00390625 m 5
 292.275033516 719.345468394 291.828125 698.803901634 291.828125 677.753830552 c 4
 291.828125 637.644432693 293.419253616 601.828156922 296.152119977 580.420783458 c 4
 309.863034161 473.019022205 394.782764996 387.584668836 502.685546875 372.635742188 c 5
 501.549768006 319.141021031 496.784960486 257.078539958 491.231080467 223.439242302 c 4
 474.611051906 122.773386002 411.790561555 59.2470703125 328.863207495 59.2470703125 c 4
 244.485923587 59.2470703125 177.279296875 128.208228887 177.279296875 214.788310947 c 4
 177.279296875 297.132793152 240.66867616 370.353515625 311.95676836 370.353515625 c 4
 338.834238809 370.353515625 355.05078125 381.503790487 355.05078125 399.984375 c 4
 355.05078125 418.464116503 338.835553338 429.614257812 311.96116566 429.614257812 c 4
 240.674008887 429.614257812 177.279296875 502.831445857 177.279296875 585.163946423 c 4
 177.279296875 657.868097 225.591729466 721.195888831 293.1171875 737.00390625 c 5
EndSplineSet
Validated: 524297
EndChar
StartChar: u1040E
Encoding: 270 66574 14
Width: 662
VWidth: 952
Flags: W
HStem: -0.535156 56.0186<153.171 245.028 363.14 455.142>
VStem: -1.02832 123.24<87.6817 158.606> 276.255 56.0195<87.7303 158.766> 486.317 56.0186<89.6019 158.766>
LayerCount: 2
Fore
SplineSet
332.274414062 449.356445312 m 1
 276.254882812 449.356445312 l 1
 276.254882812 158.76171875 l 2
 276.254882812 102.302361729 241.339331037 55.4833984375 199.234391828 55.4833984375 c 0
 157.168426032 55.4833984375 122.215820312 102.254783406 122.215820312 158.544820725 c 0
 122.215820312 158.783687511 122.215373695 158.876839545 122.213510424 159.026599599 c 0
 122.212343162 159.120418024 122.211914062 159.176005288 122.211914062 159.233398438 c 2
 122.211914062 799.46484375 l 1
 -1.0283203125 799.46484375 l 1
 -1.0283203125 159.060546875 l 2
 -1.0283203125 159.021935536 -1.02853978991 158.988355491 -1.029296875 158.911132812 c 0
 -1.03005396009 158.833910134 -1.0302734375 158.765394258 -1.0302734375 158.606272129 c 0
 -1.0302734375 73.0828397947 85.1360642386 -0.53515625 185.237144757 -0.53515625 c 0
 237.711398067 -0.53515625 277.736197267 20.0748751905 304.264648438 60.755859375 c 1
 329.528486229 22.0115170354 368.163929486 -0.53515625 409.291475519 -0.53515625 c 0
 482.958109143 -0.53515625 542.332075148 70.5562595795 542.3359375 158.765625 c 2
 542.3359375 799.46484375 l 1
 486.317382812 799.46484375 l 1
 486.317382812 159.184570312 l 2
 486.317382812 159.130060186 486.316943858 159.082543326 486.315429688 158.973144531 c 0
 486.313915517 158.863745736 486.313476562 158.765593901 486.313476562 158.536418947 c 0
 486.313476562 102.251302677 451.357986345 55.4833984375 409.289096085 55.4833984375 c 0
 367.186061299 55.4833984375 332.274414062 102.302427808 332.274414062 158.765625 c 2
 332.274414062 449.356445312 l 1
EndSplineSet
Validated: 524297
EndChar
StartChar: u1040F
Encoding: 271 66575 15
Width: 881
VWidth: 952
Flags: W
HStem: 425.902 59.2764<287.206 409.625> 696.279 103.703<74.1685 134.547>
VStem: -1.1748 71.0674<599.907 691.412>
LayerCount: 2
Fore
SplineSet
96.1454624735 799.982421875 m 0
 41.2210615652 799.982421875 -1.1748046875 749.188742734 -1.1748046875 683.38486506 c 0
 -1.1748046875 579.950761416 81.4915467746 492.061516887 218.389648438 449.948242188 c 1
 355.78125 20.5888671875 l 2
 359.706915641 8.31727451701 371.142396213 -0.013671875 384.061342572 -0.013671875 c 0
 397.982773906 -0.013671875 410.00339382 9.71583448021 412.985351562 23.3974609375 c 1
 542.922851562 447.938476562 l 1
 581.558735891 459.225783767 618.030368376 474.691496347 643.170345412 490.448197709 c 0
 692.970754683 521.661041518 725.289812826 567.579530316 744.705395873 634.707849601 c 0
 761.846413032 693.971981403 764.072778306 701.590286397 766.13921988 708.051343767 c 0
 768.446687925 715.266008634 769.200195312 718.750631324 769.200195313 722.206937501 c 0
 769.200195312 738.507553577 755.895511594 751.838867188 739.627456722 751.838867188 c 0
 725.330619255 751.838867188 714.722752248 741.860070388 708.569517424 722.622733063 c 0
 707.517658532 719.334224674 705.45853711 712.341973157 700.891388762 696.549765134 c 0
 699.549627253 691.910244968 699.531610825 691.847948385 699.487746839 691.696300645 c 0
 665.844016294 575.382300391 646.743264305 550.83235583 564.379882812 518.043945312 c 1
 650.672851562 799.984375 l 1
 520.30078125 799.984375 l 1
 427.555664062 486.969726562 l 1
 412.999301676 485.772872956 398.527914492 485.178710938 383.933756676 485.178710938 c 0
 343.326550041 485.178710938 303.186445573 489.789786395 264.977539062 498.84375 c 1
 204.834960938 686.794921875 l 2
 180.301814838 763.448969732 145.220179581 799.982421875 96.1454624735 799.982421875 c 0
285.70703125 434.061523438 m 1
 317.670311559 428.648151276 350.740039189 425.90234375 383.973878925 425.90234375 c 0
 392.531780573 425.90234375 401.087414021 426.084421832 409.625 426.448242188 c 1
 351.219726562 229.328125 l 1
 285.70703125 434.061523438 l 1
195.532226562 521.381835938 m 1
 117.188349555 554.618863706 69.892578125 606.943415621 69.892578125 660.380272978 c 0
 69.892578125 671.478197946 72.2781296294 681.001377159 76.7103446811 687.596961707 c 0
 80.8569915439 693.767591889 86.3535676901 696.279296875 95.7106319947 696.279296875 c 0
 128.94985085 696.279296875 148.866051299 667.205779153 178.009765625 576.139648438 c 2
 195.532226562 521.381835938 l 1
EndSplineSet
Validated: 524297
EndChar
StartChar: u10410
Encoding: 272 66576 16
Width: 605
VWidth: 952
Flags: W
HStem: 377.583 61.5264<295.645 338.499>
VStem: 0.250977 59.1201<546.923 736.621> 165.659 129.985<377.583 383.089 453.173 656.718> 424.146 59.084<532.869 703.593>
LayerCount: 2
Fore
SplineSet
332.464891342 802.94140625 m 0
 219.075758817 802.94140625 168.221338238 696.280478553 165.700195312 453.172851562 c 1
 101.17283941 489.704981973 59.37109375 563.844552096 59.37109375 641.758130883 c 0
 59.37109375 674.487630967 66.6830374993 707.667981465 79.6849472419 733.938924654 c 0
 83.9156024145 742.487153637 85.4208984375 747.309983172 85.4208984375 752.316382919 c 0
 85.4208984375 768.623072006 72.1812051871 781.939453125 55.9684248895 781.939453125 c 0
 43.034294179 781.939453125 33.3133744865 773.457376161 23.4824875603 753.593552799 c 0
 9.0544249502 724.44089452 0.2509765625 682.125617829 0.2509765625 641.927331504 c 0
 0.2509765625 530.351803352 67.6859911393 426.729242531 165.66015625 387.754882812 c 1
 165.66015625 342.70191672 165.660047216 302.098679586 165.659700277 217.955571402 c 0
 165.659290058 118.464759386 165.659179688 87.0969604884 165.659179688 70.0009656932 c 0
 165.659179688 40.86833999 165.659508904 32.3946487149 165.660644531 32.2973632812 c 0
 165.661780159 32.2000778476 165.662109375 32.1578284455 165.662109375 32.109375 c 2
 165.662109375 2.94140625 l 1
 295.64453125 2.94140625 l 1
 295.64453125 377.583007812 l 1
 403.736080465 402.11799045 483.23046875 505.285225038 483.23046875 621.030662885 c 0
 483.23046875 727.817236593 420.968402167 802.94140625 332.464891342 802.94140625 c 0
295.64453125 439.109375 m 1
 295.64453125 549.072265625 l 2
 295.64453125 549.120719071 295.644860466 549.162858734 295.645996094 549.259765625 c 0
 295.647131721 549.356672516 295.647460938 549.495687827 295.647460938 549.878312827 c 0
 295.647460938 603.014600977 304.252212148 657.019961754 318.324945367 692.207323637 c 0
 329.16718972 719.317194176 342.738206787 738.546921915 352.91796875 741.224609375 c 1
 395.806682269 731.364322138 424.146484375 683.21800099 424.146484375 620.214908059 c 0
 424.146484375 537.983564109 370.852565357 462.87323794 295.64453125 439.109375 c 1
EndSplineSet
Validated: 524297
EndChar
StartChar: u10411
Encoding: 273 66577 17
Width: 697
VWidth: 952
Flags: W
HStem: -0.015625 21G<445.984 576.357> 651.833 148.151<-1.41309 445.984>
VStem: 445.984 130.373<-0.015625 651.833>
LayerCount: 2
Fore
SplineSet
576.357421875 -0.015625 m 1
 445.984375 -0.015625 l 1
 445.984375 651.833007812 l 1
 -1.4130859375 651.833007812 l 1
 -1.4130859375 799.984375 l 1
 576.357421875 799.984375 l 1
 576.357421875 -0.015625 l 1
EndSplineSet
Validated: 524289
EndChar
StartChar: u10412
Encoding: 274 66578 18
Width: 771
VWidth: 952
Flags: W
HStem: -0.0136719 59.2607<254.632 405.63> 370.354 59.2607<251.872 425.157> 740.722 59.2607<254.637 405.344>
VStem: -0.357422 177.774<137.134 291.357 508.607 662.827> 503.113 148.366<186.061 618.997> 521.108 130.371<-0.015625 113.683 686.284 799.984>
LayerCount: 2
Fore
SplineSet
651.479492188 -0.015625 m 1xf4
 521.108398438 -0.015625 l 1
 521.108398438 113.682617188 l 1
 480.681228961 40.3261783221 402.578493043 -0.013671875 300.978893837 -0.013671875 c 0
 138.539749701 -0.013671875 -0.357421875 99.0010103794 -0.357421875 214.797898536 c 0
 -0.357421875 291.588122972 59.7876689998 361.472748709 159.01953125 399.983398438 c 1
 59.7888058921 438.494225918 -0.357421875 508.379986756 -0.357421875 585.168405754 c 0
 -0.357421875 700.960039872 138.550526982 799.982421875 300.982272863 799.982421875 c 0
 402.572474461 799.982421875 480.680997599 759.638270278 521.108398438 686.284179688 c 1
 521.108398438 799.984375 l 1
 651.479492188 799.984375 l 1
 651.479492188 -0.015625 l 1xf4
325.55859375 370.353515625 m 1
 243.855755217 370.353515625 177.416992188 300.585404168 177.416992188 214.788310947 c 0
 177.416992188 128.208228887 244.6236189 59.2470703125 329.000902808 59.2470703125 c 0
 412.492663073 59.2470703125 474.889308516 123.624635981 492.031812803 227.453758985 c 0
 498.554532429 266.960720569 503.11328125 337.91351748 503.11328125 399.926779767 c 0xf8
 503.11328125 461.590777387 498.012833675 536.277437955 490.83088328 579.779875921 c 0
 474.635410368 677.878932153 411.447074956 740.721679688 329.004020558 740.721679688 c 0
 244.630468423 740.721679688 177.416992188 671.747542506 177.416992188 585.163820232 c 0
 177.416992188 499.379481116 243.859685775 429.614257812 325.55859375 429.614257812 c 1
 396.665039062 429.614257812 l 2
 412.825899741 429.614257812 426.295898438 416.144703055 426.295898438 399.984375 c 0
 426.295898438 383.82378503 412.825629033 370.353515625 396.665039062 370.353515625 c 2
 325.55859375 370.353515625 l 1
EndSplineSet
Validated: 524289
EndChar
StartChar: u10413
Encoding: 275 66579 19
Width: 604
VWidth: 952
Flags: W
HStem: -0.015625 21G<353.059 483.432> 740.722 59.2598<137.03 270.694>
VStem: -0.282227 61.4275<555.604 659.609> 353.059 130.373<-0.015625 558.189>
LayerCount: 2
Fore
SplineSet
206.83492024 799.981445312 m 0
 359.078374938 799.981445312 484.169921875 622.931293644 484.169921875 407.451291958 c 0
 484.169921875 398.982585527 484.009644548 395.929233984 483.431640625 393.38671875 c 2
 483.431640625 -0.015625 l 1
 353.05859375 -0.015625 l 1
 353.05859375 547.750976562 l 2
 353.05859375 547.801754309 353.058371248 547.841890737 353.057397325 547.966795902 c 0
 353.056855273 548.036313833 353.056640625 548.144682476 353.056640625 548.348829051 c 0
 353.056640625 653.920614105 286.278658201 740.721679688 205.05994551 740.721679688 c 0
 136.321941889 740.721679688 71.0960159337 676.097167701 61.1452405648 598.133936571 c 0
 57.3506768002 568.40394661 46.707920765 553.459960938 29.329483095 553.459960938 c 0
 11.7617624471 553.459960938 -0.2822265625 568.210043932 -0.2822265625 589.724953765 c 0
 -0.2822265625 691.936466804 106.149529767 799.981445312 206.83492024 799.981445312 c 0
EndSplineSet
Validated: 524289
EndChar
StartChar: u10414
Encoding: 276 66580 20
Width: 742
VWidth: 952
Flags: W
HStem: -0.0136719 59.2617<252.414 398.013> 338.113 58.9785<142.011 289.864> 740.721 59.2617<253.923 397.901>
VStem: -0.110352 142.121<263.333 339.486 397.393 536.641> 491.332 130.371<174.7 290.713>
LayerCount: 2
Fore
SplineSet
329.043617888 740.675373706 m 0
 399.256704667 739.278022633 461.024377173 681.522755089 479.959960938 599.5625 c 1
 428.75023152 477.203748581 309.16915937 397.091796875 177.737093521 397.091796875 c 0
 165.2672812 397.091796875 152.859037454 397.80513907 140.501953125 399.232421875 c 1
 140.472817298 445.805600547 143.248730014 498.582356285 147.468564871 531.684412967 c 0
 163.391359149 656.589120535 235.03332257 740.719689022 325.474846087 740.720694467 c 0
 326.108665393 740.720701513 326.458362033 740.717796411 327.353157167 740.705090414 c 0
 327.846236709 740.698088737 328.326208088 740.689651292 329.043617888 740.675373706 c 0
142.010742188 339.486328125 m 1
 151.666782851 338.584426645 162.459470753 338.11328125 173.463594233 338.11328125 c 0
 302.869722531 338.11328125 416.937570228 395.975074841 491.33203125 499.354492188 c 1
 491.33203125 290.712890625 l 1
 489.661094573 270.472215381 487.153898459 246.237766208 485.38461941 233.225465067 c 0
 471.362172537 130.096282868 405.780950753 59.248046875 324.341066415 59.248046875 c 0
 235.906707778 59.248046875 163.553613732 142.105902227 148.436524168 260.691721253 c 0
 145.998561319 279.816290176 143.395003087 311.741797138 142.010742188 339.486328125 c 1
491.33203125 -0.015625 m 1
 621.703125 -0.015625 l 1
 621.703125 799.984375 l 1
 491.33203125 799.984375 l 1
 491.33203125 713.395507812 l 1
 448.705321837 769.645725871 387.771658763 799.982421875 317.415338165 799.982421875 c 0
 143.792553795 799.982421875 -0.1103515625 618.704612401 -0.1103515625 399.987985748 c 0
 -0.1103515625 181.266815949 143.790917627 -0.013671875 317.412769105 -0.013671875 c 0
 387.77089685 -0.013671875 448.704969584 30.3238064012 491.33203125 86.576171875 c 1
 491.33203125 -0.015625 l 1
EndSplineSet
Validated: 524329
EndChar
StartChar: u10415
Encoding: 277 66581 21
Width: 661
VWidth: 952
Flags: W
HStem: -0.0146484 59.9497<254.619 400.676> 740.67 59.3122<253.611 400.977>
VStem: 1.48438 140.612<260.048 539.846> 391.91 148.145<568.088 669.662> 477.363 62.255<131.701 210.221>
LayerCount: 2
Fore
SplineSet
539.61784449 184.623316837 m 0xe8
 539.61784449 98.9230353592 420.75037462 -0.0146484375 317.78681983 -0.0146484375 c 0
 145.112685089 -0.0146484375 1.484375 181.620692415 1.484375 399.987985748 c 0
 1.484375 617.948056372 144.805869775 799.982421875 316.41282452 799.982421875 c 0
 422.538222347 799.982421875 540.0546875 700.349049002 540.0546875 610.373305441 c 0
 540.0546875 577.129156688 504.346515158 546.1796875 465.990839789 546.1796875 c 0
 425.110743215 546.1796875 391.91015625 579.37752975 391.91015625 620.254246738 c 0xf0
 391.91015625 650.366009998 410.18274098 677.518605492 438.09765625 688.887695312 c 1
 407.960635287 722.235356109 368.498201281 740.647119881 327.110824114 740.670191413 c 0
 236.656945336 740.72061523 164.990673568 656.630654955 149.074048758 531.769895668 c 0
 144.877246492 498.847343066 142.096435547 446.326429802 142.096435547 399.984375 c 0
 142.096435547 353.642494388 144.877231863 301.12154424 149.073993902 268.199104582 c 0
 164.980585749 143.416282629 236.626411397 59.2201438057 326.294156184 59.9350047431 c 0
 393.593798912 60.4715397681 458.879067145 110.885393371 477.362857821 176.591573896 c 0
 484.252046439 201.081262127 494.768743495 212.705078125 510.036704661 212.705078125 c 0
 525.938650053 212.705078125 539.61784449 199.719240695 539.61784449 184.623316837 c 0xe8
EndSplineSet
Validated: 524321
EndChar
StartChar: u10416
Encoding: 278 66582 22
Width: 683
VWidth: 952
Flags: W
HStem: 354.193 61.54<202.556 395.888> 738.807 61.54<203.185 425.838>
VStem: -2.56934 145.133<499.317 654.888> 408.069 153.843<619.731 723.531>
LayerCount: 2
Fore
SplineSet
444.259765625 422.322265625 m 1
 444.220103689 422.304512187 444.185468098 422.28889898 444.106784121 422.253303848 c 0
 444.026480002 422.216975794 443.991979186 422.201422752 443.952148438 422.18359375 c 1
 443.991979187 422.201422752 444.026480003 422.216975794 444.106784122 422.253303848 c 0
 444.185468098 422.28889898 444.220103689 422.304512187 444.259765625 422.322265625 c 1
484.98018365 595.869140625 m 0
 526.918256234 595.869140625 561.912109375 629.822639782 561.912109375 670.513909373 c 0
 561.912109375 742.031869046 453.647836434 800.346679688 320.871277254 800.346679688 c 0
 144.04297526 800.346679688 -2.5693359375 699.230955652 -2.5693359375 577.275837147 c 0
 -2.5693359375 453.516073956 146.643556878 354.193359375 332.568320996 354.193359375 c 0
 356.19942347 354.193359375 376.835021892 355.798196766 397.111328125 359.212890625 c 1
 274.353515625 0.3486328125 l 1
 397.43359375 0.3486328125 l 1
 549.454101562 444.755859375 l 1
 554.030850971 452.081585095 556.354880978 459.219759688 556.354880978 465.95135519 c 0
 556.354880978 481.59897273 542.000384741 495.418945312 525.74755459 495.418945312 c 0
 514.268985835 495.418945312 503.602130554 488.514684196 497.039519914 476.837295677 c 0
 477.133246171 441.416438766 406.939659979 415.733398438 330.038198311 415.733398438 c 0
 287.835814231 415.733398438 241.924816267 423.207177997 201.444335938 436.666992188 c 1
 174.66725246 454.452705793 159.011548292 476.276092076 151.283134687 506.589575006 c 0
 145.865828308 527.838104505 142.563343656 555.809053731 142.563343656 580.443311778 c 0
 142.563343656 602.558521102 145.003261295 623.317268586 149.826084173 642.234494413 c 0
 158.76719243 677.305441097 174.020357658 699.658552308 201.438476562 717.87109375 c 1
 242.190555433 731.421219798 288.133701756 738.806640625 331.674101047 738.806640625 c 0
 367.189375967 738.806640625 399.440048991 733.904749855 427.786132812 724.198242188 c 1
 415.048358871 710.035575041 408.069335938 691.839431711 408.069335938 672.791381172 c 0
 408.069335938 630.338489873 442.533579983 595.869140625 484.98018365 595.869140625 c 0
EndSplineSet
Validated: 524293
EndChar
StartChar: u10417
Encoding: 279 66583 23
Width: 764
VWidth: 952
Flags: W
HStem: -0.0146484 59.2617<194.87 281.821 365.372 457.035> 740.721 59.2617<248.569 397.348>
VStem: -2.3584 147.171<257.65 537.816> 293.928 59.2598<71.5695 121.665 307.388 335.897> 502.004 147.47<258.436 537.815>
LayerCount: 2
Fore
SplineSet
323.55859375 36.4189453125 m 1
 344.149559898 11.9640468532 371.764853027 -0.0146484375 407.551411559 -0.0146484375 c 0
 497.757309128 -0.0146484375 567.758813712 74.9076723738 617.331435805 224.512043804 c 0
 640.016560328 292.97309452 649.474609375 344.723887744 649.474609375 400.387081115 c 0
 649.474609375 621.160237051 503.625273789 799.982421875 323.56026597 799.982421875 c 0
 143.491434539 799.982421875 -2.3583984375 621.162704429 -2.3583984375 400.388659644 c 0
 -2.3583984375 344.59156383 7.16600571748 292.77084169 30.1949219405 223.271378332 c 0
 79.3845772524 74.8208557867 149.565436607 -0.0146484375 239.592926309 -0.0146484375 c 0
 275.351428496 -0.0146484375 302.968449643 11.9686699797 323.55859375 36.4189453125 c 1
323.732416073 740.720703125 m 0
 412.44357195 740.720703125 485.631462834 659.260811463 500.299895519 544.196830488 c 0
 503.281973923 520.804432668 504.931640625 487.459680369 504.931640625 450.575256435 c 0
 504.931640625 423.876075818 504.278134974 400.714766268 502.004193382 346.821736176 c 0
 499.825766539 295.19243146 499.172540266 272.516574564 499.117787669 246.624108459 c 0
 498.865919434 127.515791087 466.723409752 59.2470703125 410.89629773 59.2470703125 c 0
 376.288487959 59.2470703125 353.391147937 83.9954339549 353.190308978 121.61801788 c 0
 353.189635222 121.744230746 353.189237447 121.8158655 353.188439438 121.954700819 c 0
 353.187723205 122.079309082 353.1875 122.139261394 353.1875 122.20703125 c 2
 353.1875 307.391601562 l 2
 353.1875 323.755859375 339.921875 337.021484375 323.557617188 337.021484375 c 0
 307.192485046 337.021484375 293.927734375 323.754984948 293.927734375 307.387695312 c 2
 293.927734375 122.193359375 l 2
 293.927734375 122.132237575 293.927515397 122.080994943 293.926686753 121.948207745 c 0
 293.92600101 121.838319851 293.925613712 121.769692643 293.925090926 121.665435413 c 0
 293.744008928 85.5529489826 272.057327413 59.2470703125 242.467117535 59.2470703125 c 0
 184.238824234 59.2470703125 148.236747777 133.99444719 147.979031939 255.422881247 c 0
 147.937487363 274.99751384 147.283734966 295.32830203 144.812550272 353.896046918 c 0
 142.830459674 400.872129581 142.18359375 425.254496208 142.18359375 452.989505616 c 0
 142.18359375 564.89819252 156.799249105 624.307769336 196.557068101 674.006286788 c 0
 230.986827706 717.044563328 276.119821182 740.720703125 323.732416073 740.720703125 c 0
EndSplineSet
Validated: 524297
EndChar
StartChar: u10418
Encoding: 280 66584 24
Width: 770
VWidth: 952
Flags: W
HStem: -0.0146484 59.2617<195.87 282.82 366.372 458.036> 406.447 59.2598<360.173 504.543> 740.721 59.2617<296.503 398.227>
VStem: -1.3584 147.171<257.65 537.816> 230.939 59.3398<538.584 707.151> 294.928 59.2598<71.5696 121.618 307.388 335.897> 502.342 148.132<258.436 417.48 471.593 537.815>
LayerCount: 2
Fore
SplineSet
231.658203125 707.9609375 m 1
 231.182503735 695.964575534 230.939453125 683.330475018 230.939453125 670.599337177 c 0
 230.939453125 629.079169927 233.478484767 592.847228259 238.078560668 568.724384625 c 0
 256.205701101 473.665480472 339.361651154 406.447265625 438.832300304 406.447265625 c 0
 461.566425206 406.447265625 484.164457598 410.185385681 505.53125 417.48046875 c 1
 505.090624566 398.10790299 504.545013598 383.333930733 502.342424866 331.133938288 c 0
 500.808627405 294.783885865 500.168195587 270.454712979 500.117794152 246.623107086 c 0
 499.865894008 127.515687185 467.723515018 59.2470703125 411.897000126 59.2470703125 c 0
 377.289107132 59.2470703125 354.391145954 83.9958053915 354.19030896 121.618021194 c 0
 354.189635218 121.744231451 354.189237447 121.8158655 354.188439438 121.954700819 c 0
 354.187723205 122.079309082 354.1875 122.139261394 354.1875 122.20703125 c 2
 354.1875 307.391601562 l 2
 354.1875 323.755859375 340.921875 337.021484375 324.557617188 337.021484375 c 0
 308.192485046 337.021484375 294.927734375 323.754984948 294.927734375 307.387695312 c 2
 294.927734375 122.194335938 l 2
 294.927734375 122.137093995 294.927626977 122.08191171 294.927330867 121.987008506 c 0
 294.926869399 121.839108545 294.92657604 121.767276815 294.925824318 121.618116127 c 0
 294.74401524 85.5426038007 273.048911909 59.2470703125 243.466656 59.2470703125 c 0
 185.238783562 59.2470703125 149.236747178 133.994729099 148.979031939 255.422881247 c 0
 148.937487363 274.99751384 148.283734966 295.32830203 145.812550272 353.896046918 c 0
 143.830459674 400.872129581 143.18359375 428.437733112 143.18359375 465.926640045 c 0
 143.18359375 588.066064299 169.641023414 660.443952671 231.658203125 707.9609375 c 1
324.613826198 740.720703125 m 0
 413.035240766 740.720703125 486.56259174 659.800111164 500.992880823 546.606576604 c 0
 503.13790667 529.780644987 504.790378758 505.888524741 505.502929688 481.3984375 c 1
 485.368446591 471.073623113 462.566834548 465.70703125 438.833175986 465.70703125 c 0
 367.375797841 465.70703125 309.238258523 511.970585013 296.455242564 579.005757938 c 0
 292.606211118 599.19039116 290.279296875 634.1697373 290.279296875 671.845682178 c 0
 290.279296875 695.535164884 291.219879459 717.785984614 293.041992188 737.201171875 c 1
 303.451162201 739.545154005 313.996385144 740.720703125 324.613826198 740.720703125 c 0
324.557617188 36.419921875 m 1
 345.148096784 11.9645592407 372.764152026 -0.0146484375 408.551411559 -0.0146484375 c 0
 498.757309128 -0.0146484375 568.758813712 74.9076723738 618.331435805 224.512043804 c 0
 641.016560328 292.97309452 650.474609375 344.723887744 650.474609375 400.387081115 c 0
 650.474609375 621.160237051 504.625273789 799.982421875 324.56026597 799.982421875 c 0
 144.491434539 799.982421875 -1.3583984375 621.162704429 -1.3583984375 400.388659644 c 0
 -1.3583984375 344.59156383 8.16600571748 292.77084169 31.1949219405 223.271378332 c 0
 80.3845772524 74.8208557867 150.565436607 -0.0146484375 240.592926309 -0.0146484375 c 0
 276.3520075 -0.0146484375 303.968916145 11.969081739 324.557617188 36.419921875 c 1
EndSplineSet
Validated: 524297
EndChar
StartChar: u10419
Encoding: 281 66585 25
Width: 606
VWidth: 952
Flags: W
HStem: 296.281 59.2617<276.943 343.537> 740.722 59.2598<211.594 342.476>
VStem: -1.57324 130.372<429.614 429.62 429.62 558.252> 425.084 59.2617<449.263 647.263>
LayerCount: 2
Fore
SplineSet
128.798828125 355.54296875 m 1
 128.798828125 518.499023438 l 1
 128.798828125 547.750976562 l 2
 128.798828125 547.799430008 128.799157341 547.84167941 128.800292969 547.938964844 c 0
 128.801428596 548.036250277 128.801757812 548.142697139 128.801757812 548.412599061 c 0
 128.801757812 653.976299183 195.623295583 740.721679688 276.9409258 740.721679688 c 0
 358.310469161 740.721679688 425.083984375 653.915474052 425.083984375 548.134292834 c 0
 425.083984375 442.35147067 358.311164826 355.54296875 276.943359375 355.54296875 c 2
 128.799804688 355.54296875 l 1
 128.798828125 355.54296875 l 1
128.798828125 296.282226562 m 1
 128.799804688 296.28125 l 1
 276.943359375 296.28125 l 2
 391.679556624 296.28125 484.345703125 408.804102148 484.345703125 548.126224052 c 0
 484.345703125 688.707616745 390.643098561 799.981445312 272.260880405 799.981445312 c 0
 129.099705569 799.981445312 8.91116554749 637.666077225 -1.53864763666 430.213486002 c 0
 -1.5623805441 429.742333737 -1.56883715855 429.622927082 -1.57073371544 429.620095864 c 0
 -1.57261856538 429.617282121 -1.5732421875 429.615830745 -1.5732421875 429.614257812 c 2
 -1.5732421875 429.524414062 l 2
 -2.02310451203 420.560390937 -2.3115234375 410.532813164 -2.3115234375 403.856290376 c 0
 -2.3115234375 398.392434584 -2.1312450783 395.836144361 -1.5732421875 393.387695312 c 2
 -1.5732421875 370.353515625 l 1
 -1.5732421875 59.244140625 l 1
 -1.5732421875 -0.015625 l 1
 57.6875 -0.015625 l 1
 69.5380859375 -0.015625 l 1
 128.798828125 -0.015625 l 1
 128.798828125 59.244140625 l 1
 128.798828125 296.282226562 l 1
EndSplineSet
Validated: 524297
EndChar
StartChar: u1041A
Encoding: 282 66586 26
Width: 653
VWidth: 952
Flags: W
HStem: -0.0146484 59.2617<253.335 401.339> 370.354 59.2607<227.131 255.637 326.744 400.431> 740.722 59.2607<253.337 401.336>
VStem: 0.827148 177.775<263.529 536.443> 474.885 59.2607<134.66 294.424 505.541 665.302>
LayerCount: 2
Fore
SplineSet
326.739603005 59.2470703125 m 0
 245.03295063 59.2470703125 178.602539062 129.00295645 178.602539062 214.799804688 c 2
 178.602539062 585.16796875 l 2
 178.602539062 670.954882745 245.042559953 740.721679688 326.738790934 740.721679688 c 0
 408.441089183 740.721679688 474.884765625 670.957483816 474.884765625 585.172117268 c 0
 474.884765625 499.380955528 408.444649774 429.614257812 326.744140625 429.614257812 c 2
 255.63671875 429.614257812 l 2
 239.282933629 429.614257812 226.005859375 416.337621139 226.005859375 399.984375 c 0
 226.005859375 383.630859375 239.283203125 370.353515625 255.63671875 370.353515625 c 2
 326.744140625 370.353515625 l 2
 408.445558941 370.353515625 474.884765625 300.584646842 474.884765625 214.78868662 c 0
 474.884765625 128.999073896 408.449671537 59.2470703125 326.739603005 59.2470703125 c 0
316.663182472 -0.0146484375 m 0
 438.977419789 -0.0146484375 534.145507812 93.9843806242 534.145507812 214.796091641 c 0
 534.145507812 290.984980998 495.34748426 361.219797086 431.846679688 399.984375 c 1
 495.348447801 438.74818473 534.145507812 508.977862228 534.145507812 585.163708316 c 0
 534.145507812 705.976834028 438.973289014 799.982421875 316.660844643 799.982421875 c 0
 144.351797162 799.982421875 0.8271484375 618.212348857 0.8271484375 399.987615887 c 0
 0.8271484375 181.756585953 144.351100404 -0.0146484375 316.663182472 -0.0146484375 c 0
EndSplineSet
Validated: 524297
EndChar
StartChar: u1041B
Encoding: 283 66587 27
Width: 696
VWidth: 952
Flags: W
HStem: -0.015625 148.151<128.772 576.17>
VStem: -1.60059 130.373<148.136 799.984>
LayerCount: 2
Fore
SplineSet
-1.6005859375 799.984375 m 1
 128.772460938 799.984375 l 1
 128.772460938 148.135742188 l 1
 576.169921875 148.135742188 l 1
 576.169921875 -0.015625 l 1
 -1.6005859375 -0.015625 l 1
 -1.6005859375 799.984375 l 1
EndSplineSet
Validated: 524289
EndChar
StartChar: u1041C
Encoding: 284 66588 28
Width: 735
VWidth: 952
Flags: W
HStem: 0.847656 65.4746<276.347 377.046>
VStem: 171.232 65.4736<110.111 264.536> 416.759 98.21<119.017 264.495>
LayerCount: 2
Fore
SplineSet
285.259765625 414.467773438 m 5
 216.784179688 318.68359375 l 6
 190.87321784 292.798311746 171.232421875 236.060287072 171.232421875 187.094387117 c 4
 171.232421875 82.6132717116 241.741488184 0.84765625 331.838845767 0.84765625 c 4
 431.945691738 0.84765625 514.96875 100.100335701 514.96875 219.776398015 c 4
 514.96875 277.282687566 491.818155126 342.267649177 459.815429688 374.594726562 c 6
 397.935546875 454.646484375 l 5
 654.092773438 800.84375 l 5
 561.498046875 800.84375 l 5
 354.322265625 511.06640625 l 5
 130.321289062 800.84375 l 5
 -0.6279296875 800.84375 l 5
 285.259765625 414.467773438 l 5
326.732421875 358.416992188 m 5
 384.637695312 280.159179688 l 6
 385.666964179 278.230222375 386.846867182 276.505597874 388.854255184 273.995976061 c 4
 406.370302156 252.097542124 416.758789062 219.643782475 416.758789062 186.821872286 c 4
 416.758789062 120.994594292 375.91367991 66.322265625 326.734828003 66.322265625 c 4
 277.552550865 66.322265625 236.706054688 120.992385831 236.706054688 186.819353987 c 4
 236.706054688 219.651825976 247.098473106 252.10247455 264.63377099 274.02451362 c 4
 266.667537526 276.567060075 267.880267033 278.338284154 268.916992188 280.280273438 c 6
 326.732421875 358.416992188 l 5
EndSplineSet
Validated: 524297
EndChar
StartChar: u1041D
Encoding: 285 66589 29
Width: 655
VWidth: 951
Flags: W
HStem: -5.70703 54.2383<209.039 361.468> 740.059 54.2383<238.447 370.1>
VStem: -0.62793 54.5637<526.047 590.209> 72.1211 106.936<526.04 670.454> 87.8047 54.375<111.857 240.942> 421.829 86.2842<112.46 256.663> 431.484 54.375<547.49 679.32> 519.816 54.4755<198.26 256.221>
LayerCount: 2
Fore
SplineSet
485.859375 612.755186348 m 0xe3
 485.859375 712.751191064 394.675460688 794.296875 282.860503899 794.296875 c 0
 163.151429021 794.296875 72.12109375 697.976914426 72.12109375 571.311739148 c 0xf3
 72.12109375 555.729039484 73.5983095376 540.181066562 76.5302734375 524.904296875 c 1
 64.9780935864 537.001309855 56.5232844174 551.970502216 53.9357401697 564.907791693 c 0
 50.7332246814 580.919834758 40.1804740453 590.905273438 26.4612394659 590.905273438 c 0
 11.5496664861 590.905273438 -0.6279296875 578.725027909 -0.6279296875 563.810210771 c 0
 -0.6279296875 561.813227744 -0.375344178163 559.855255817 0.350313952754 556.227140824 c 0
 10.777066577 504.095901729 51.1256654753 462.203036996 109.00390625 443.415039062 c 1
 140.892031887 394.153201238 190.993081598 360.143061623 252.975585938 345.682617188 c 1
 216.606744668 338.840969469 187.663289722 328.226356255 163.28070271 312.788254905 c 0
 132.826097211 293.505588712 111.371936391 267.44733875 98.7666538908 234.429412334 c 0
 91.4922081115 215.37493137 87.8046875 195.663700649 87.8046875 175.833441913 c 0
 87.8046875 75.4830379265 179.414646929 -5.70703125 292.643968336 -5.70703125 c 0
 340.391081555 -5.70703125 384.610681853 8.05778118471 421.078906222 34.2725890582 c 0
 476.001761494 73.7533184789 508.11328125 137.903003255 508.11328125 208.142520009 c 0xed
 508.11328125 224.448465392 506.34894331 240.900772224 502.859375 257.134765625 c 1
 511.354825832 246.482325884 517.708340097 233.783507415 519.816463387 223.242500932 c 0
 522.948421656 207.582130128 533.554261262 197.684570312 547.203346401 197.684570312 c 0
 562.114515722 197.684570312 574.291992188 209.864931433 574.291992188 224.779632979 c 0
 574.291992188 226.773634683 574.04126641 228.725282549 573.325114507 232.305802739 c 0
 565.814207356 269.85782844 542.392913722 302.753646623 507.133702884 325.273367896 c 0
 494.158809985 333.560308094 479.772157384 340.289665441 464.42578125 345.25 c 1
 430.163466741 394.327073026 379.698668801 428.506449585 320.3359375 442.840820312 c 1
 356.765144483 449.659664706 385.747270682 460.248967427 410.168797786 475.663372578 c 0
 440.736101457 494.956875444 462.260901734 521.059144207 474.896657624 554.156272501 c 0
 482.171644392 573.211813971 485.859375 592.923806975 485.859375 612.755186348 c 0xe3
375.458984375 300.67578125 m 1
 405.033269299 273.518985738 421.829101562 233.880509555 421.829101562 191.241443204 c 0
 421.829101562 108.186256931 365.843465488 48.53125 287.89699172 48.53125 c 0
 208.365540159 48.53125 142.1796875 106.48920352 142.1796875 176.133696833 c 0xed
 142.1796875 189.36828485 144.635072628 202.478943393 149.500398119 215.223017739 c 0
 159.710663009 241.967451406 178.402700057 261.604065736 206.45189181 275.05247957 c 0
 232.501830201 287.542335068 267.067774738 295.015614444 314.433684556 298.398524807 c 0
 332.063540086 299.657662891 351.71464681 300.390975297 375.458984375 300.67578125 c 1
215.1953125 488.209960938 m 1
 191.986863793 514.588006515 179.056640625 551.1327788 179.056640625 590.348919958 c 0
 179.056640625 673.825257062 232.984553615 740.05859375 300.951907658 740.05859375 c 0
 368.871002136 740.05859375 431.484375 678.850144049 431.484375 612.455022881 c 0xf3
 431.484375 599.221286884 429.029228333 586.112495825 424.16370571 573.367694442 c 0
 414.253887946 547.409813053 396.351734906 528.151145228 369.689576002 514.765851038 c 0
 344.552019893 502.145958366 311.058545516 494.38740965 265.759308244 490.691070486 c 0
 250.718523305 489.463768531 234.284812379 488.657387697 215.1953125 488.209960938 c 1
EndSplineSet
Validated: 524297
EndChar
StartChar: u1041E
Encoding: 286 66590 30
Width: 653
VWidth: 952
Flags: W
HStem: -0.0146484 59.2617<253.453 401.36> 434.064 59.2695<179.65 341.517> 740.722 59.2607<254.136 402.149>
VStem: 0.832031 177.775<263.503 420.393> 474.915 59.2748<135.066 214.609 240.964 300.532 586.643 668.783>
LayerCount: 2
Fore
SplineSet
178.607421875 485.122070312 m 1
 178.607421875 585.16796875 l 2
 178.607421875 670.915318941 245.009618835 740.721679688 326.575429961 740.721679688 c 0
 396.37462305 740.721679688 461.026013467 688.113445314 470.966253968 623.227743954 c 0
 474.814817771 598.105941164 485.741740416 584.681640625 502.341467012 584.681640625 c 0
 519.558254622 584.681640625 531.947656656 598.981307499 531.947656656 618.852672299 c 0
 531.947656656 708.297527195 424.117715211 799.982421875 318.922268352 799.982421875 c 0
 144.861631925 799.982421875 0.83203125 618.8668595 0.83203125 399.987615886 c 0
 0.83203125 181.692605336 144.405084323 -0.0146484375 316.887362739 -0.0146484375 c 0
 438.789110913 -0.0146484375 534.190204948 94.1563036668 534.190204948 214.486199303 c 0
 534.190204948 226.051026241 533.283193616 237.424966354 531.357166131 250.012562326 c 0
 510.005573236 389.556378199 388.517291443 493.333876767 246.510365785 493.333876767 c 0
 223.657386168 493.333876767 200.899988388 490.581722954 178.607421875 485.122070312 c 1
472.786016936 240.963528487 m 0
 474.242764712 231.443121245 474.915399463 223.118319647 474.915399463 214.609423194 c 0
 474.915399463 129.098900101 408.367645277 59.2470703125 326.901872824 59.2470703125 c 0
 245.07368741 59.2470703125 178.607421875 128.966532379 178.607421875 214.799804688 c 2
 178.607421875 423.615234375 l 1
 200.773595108 430.552224469 223.64590742 434.064379433 246.655703229 434.064379433 c 0
 359.344517457 434.064379433 455.848601982 351.656052411 472.786016936 240.963528487 c 0
EndSplineSet
Validated: 524297
EndChar
StartChar: u1041F
Encoding: 287 66591 31
Width: 747
VWidth: 952
Flags: W
HStem: -0.015625 59.2637<223.775 368.448> 740.72 59.2641<224.37 366.67>
VStem: -1.11035 130.372<176.326 619.86> 480.091 140.612<259.988 539.983>
LayerCount: 2
Fore
SplineSet
620.703125 399.984375 m 1024
129.26171875 713.395507812 m 1
 129.26171875 799.984375 l 1
 -1.1103515625 799.984375 l 1
 -1.1103515625 -0.015625 l 1
 129.26171875 -0.015625 l 1
 129.26171875 86.576171875 l 1
 171.889730658 30.3235789123 232.823270708 -0.013671875 303.180764647 -0.013671875 c 0
 476.802025908 -0.013671875 620.703125 181.267035747 620.703125 399.987985748 c 0
 620.703125 618.704612401 476.800219642 799.982421875 303.177435272 799.982421875 c 0
 232.820932774 799.982421875 171.88727447 769.645557901 129.26171875 713.395507812 c 1
133.814623248 243.489085645 m 0
 128.421461808 283.156692849 124.76171875 346.383460472 124.76171875 399.88965253 c 0
 124.76171875 453.692987043 128.032535005 513.955706577 132.8930821 549.70487628 c 0
 148.756482935 666.379686194 212.331219742 740.720724895 296.244995902 740.72023168 c 0
 385.76580429 740.719705508 457.241704913 656.279662498 473.113666853 531.771508378 c 0
 477.310267326 498.851130894 480.090820312 446.330986483 480.090820312 399.984375 c 0
 480.090820312 353.637756294 477.310266807 301.117615029 473.113663908 268.197218518 c 0
 457.241948736 143.691000177 385.767005886 59.248046875 296.253079127 59.248046875 c 0
 213.272501497 59.248046875 148.943875348 132.210898191 133.814623248 243.489085645 c 0
EndSplineSet
Validated: 524329
EndChar
StartChar: u10420
Encoding: 288 66592 32
Width: 657
VWidth: 952
Flags: W
HStem: -0.0146484 59.2617<161.513 337.778> 740.722 59.2607<198.444 373.741>
VStem: 1.43848 118.528<527.893 667.943> 1.43848 148.146<165.331 267.169> 386.631 148.145<535.372 636.577> 416.249 118.519<132.025 272.074>
LayerCount: 2
Fore
SplineSet
60.705078125 585.16796875 m 1xc0
 60.69921875 585.16796875 l 1
 60.705078125 585.16796875 l 1xc0
534.775390625 601.706608417 m 0xe8
 534.775390625 710.334592241 414.216474728 799.982421875 268.132938522 799.982421875 c 0
 116.580922417 799.982421875 1.4384765625 705.851596043 1.4384765625 581.955353207 c 0xe8
 1.4384765625 463.11887492 108.811546972 360.405008367 251.712853694 342.541048705 c 0
 353.617504604 329.802042918 416.249023438 277.514244599 416.249023438 205.178356247 c 0
 416.249023438 124.209015347 345.014988198 59.2470703125 256.228039471 59.2470703125 c 0
 188.664887803 59.2470703125 117.394202302 93.1374499648 83.888671875 141.197265625 c 1
 121.246185603 145.407230436 149.583984375 177.15474993 149.583984375 214.797308843 c 0
 149.583984375 255.687404405 116.397557716 288.873046875 75.5064959065 288.873046875 c 0
 34.7482492017 288.873046875 1.59118430668 255.849868441 1.43971905153 215.105347719 c 0
 1.43952445492 215.053000761 1.43934605302 215.013308694 1.43905394778 214.957370923 c 0
 1.43858843476 214.868225791 1.4384765625 214.812054641 1.4384765625 214.667465335 c 0
 1.4384765625 93.3620297535 117.426743974 -0.0146484375 268.106844972 -0.0146484375 c 0
 419.634997694 -0.0146484375 534.767578125 94.1187289501 534.767578125 218.00943592 c 0xd4
 534.767578125 336.85000578 427.402008171 439.563055021 284.506054089 457.426264356 c 0
 182.599016106 470.165510641 119.966796875 522.453367289 119.966796875 594.790151502 c 0
 119.966796875 675.759340747 191.200354779 740.721679688 279.986003889 740.721679688 c 0
 347.547806461 740.721679688 418.81564637 706.831254475 452.3203125 658.770507812 c 1
 414.964951808 654.556502435 386.630859375 622.810300667 386.630859375 585.170457345 c 0
 386.630859375 544.280715988 419.816939256 511.095703125 460.707995366 511.095703125 c 0
 504.659590673 511.095703125 534.775390625 547.938093594 534.775390625 601.706608417 c 0xe8
EndSplineSet
Validated: 524297
EndChar
StartChar: u10421
Encoding: 289 66593 33
Width: 584
VWidth: 952
Flags: W
HStem: -0.015625 21G<188.412 318.78> 364.889 59.3379<118.631 188.412> 601.672 59.1982<71.9546 156.131>
VStem: -0.15625 59.2607<478.301 590.189> 188.412 130.368<-0.015625 364.889 455.273 566.694 630.214 799.984> 403.253 59.2686<518.264 650.149>
LayerCount: 2
Fore
SplineSet
318.780273438 455.2734375 m 1
 371.925385696 485.905170993 403.252929688 538.867442274 403.252929688 598.082709026 c 0
 403.252929688 604.580511294 402.975823974 609.279955183 402.137042528 617.007071956 c 0
 401.825224426 619.879637751 401.737304688 621.114424235 401.737304688 622.621179697 c 0
 401.737304688 638.646894921 415.109957633 651.829101562 431.367199968 651.829101562 c 0
 447.167383237 651.829101562 459.024924772 639.707837405 461.368050221 621.161004824 c 0
 462.038413886 615.854791844 462.521484375 606.15865621 462.521484375 598.009406317 c 0
 462.521484375 506.386135641 407.921563589 427.047587981 318.780273438 389.140625 c 1
 318.780273438 -0.015625 l 1
 188.412109375 -0.015625 l 1
 188.412109375 29.8486328125 l 2
 188.412109375 29.8676414504 188.412066371 29.8835910786 188.411904819 29.9244997101 c 0
 188.411550213 30.014294111 188.411599557 30.0640731807 188.412109375 30.130859375 c 2
 188.412109375 364.888671875 l 1
 82.7222932181 369.77388232 -0.15625 446.912623922 -0.15625 540.397620069 c 0
 -0.15625 607.601029371 49.1865320797 660.870117188 111.436578329 660.870117188 c 0
 138.759222039 660.870117188 165.361087858 650.275666744 188.412109375 630.213867188 c 1
 188.412109375 799.984375 l 1
 318.780273438 799.984375 l 1
 318.780273438 455.2734375 l 1
188.412109375 424.2265625 m 1
 188.412109375 463.972515527 188.358334807 495.656607214 188.282286084 500.718726362 c 0
 187.516735646 551.676945861 150.182211736 601.671875 112.89388557 601.671875 c 0
 82.2662107874 601.671875 59.1044921875 575.971409792 59.1044921875 541.986647965 c 0
 59.1044921875 479.729990887 115.245310676 428.602704444 188.412109375 424.2265625 c 1
EndSplineSet
Validated: 524289
EndChar
StartChar: u10422
Encoding: 290 66594 34
Width: 602
VWidth: 952
Flags: W
HStem: -0.0136719 59.2607<211.889 345.552>
VStem: -0.849609 130.373<241.78 799.984> 421.445 61.4193<140.393 244.365>
LayerCount: 2
Fore
SplineSet
275.735822933 -0.013671875 m 0
 123.501438318 -0.013671875 -1.587890625 177.040984825 -1.587890625 392.517452193 c 0
 -1.587890625 400.986311182 -1.42759572343 404.039786775 -0.849609375 406.581054688 c 2
 -0.849609375 799.984375 l 1
 129.5234375 799.984375 l 1
 129.5234375 252.217773438 l 2
 129.5234375 252.169319992 129.523656977 252.12707059 129.524414062 252.029785156 c 0
 129.525171148 251.932499723 129.525390625 251.840371328 129.525390625 251.619860808 c 0
 129.525390625 146.052247458 196.312608242 59.2470703125 277.53549607 59.2470703125 c 0
 346.255639854 59.2470703125 411.514069518 123.920520782 421.444991885 201.866555603 c 0
 425.229029055 231.566787076 435.874746609 246.5078125 453.252595357 246.5078125 c 0
 470.822696728 246.5078125 482.864257812 231.753109758 482.864257812 210.224204905 c 0
 482.864257812 108.026310905 376.422198558 -0.013671875 275.735822933 -0.013671875 c 0
EndSplineSet
Validated: 524289
EndChar
StartChar: u10423
Encoding: 291 66595 35
Width: 661
VWidth: 952
Flags: W
HStem: -0.0146484 59.9497<140.863 286.92> 740.67 59.3122<140.562 287.928>
VStem: 1.48438 148.145<568.088 669.662> 1.92122 62.255<131.701 210.221> 399.443 140.612<260.048 539.846>
LayerCount: 2
Fore
SplineSet
1.92121800959 184.623316837 m 0xd8
 1.92121800959 98.9230353598 120.78868788 -0.0146484375 223.75224267 -0.0146484375 c 0
 396.426377411 -0.0146484375 540.0546875 181.620692415 540.0546875 399.987985748 c 0
 540.0546875 617.948056372 396.733192725 799.982421875 225.12623798 799.982421875 c 0
 119.000945709 799.982421875 1.484375 700.34910242 1.484375 610.373577409 c 0
 1.484375 577.129555318 37.1930914426 546.1796875 75.5487110927 546.1796875 c 0
 116.428428802 546.1796875 149.62890625 579.377639101 149.62890625 620.254246738 c 0xe8
 149.62890625 650.366009998 131.35632152 677.518605492 103.44140625 688.887695312 c 1
 133.578427213 722.235356109 173.040861219 740.647119881 214.428238386 740.670191413 c 0
 304.882117164 740.72061523 376.548388932 656.630654955 392.465013742 531.769895668 c 0
 396.661816008 498.847343066 399.442626953 446.326429802 399.442626953 399.984375 c 0
 399.442626953 353.642494388 396.661830637 301.12154424 392.465068598 268.199104582 c 0
 376.558476751 143.416282629 304.912651103 59.2201438057 215.244906316 59.9350047431 c 0
 147.945061117 60.4715413823 82.6599328679 110.885584914 64.1762024718 176.592265225 c 0
 57.2871747752 201.081647553 46.770755077 212.705078125 31.502759413 212.705078125 c 0
 15.6005094004 212.705078125 1.92121800959 199.719324942 1.92121800959 184.623316837 c 0xd8
EndSplineSet
Validated: 524329
EndChar
StartChar: u10424
Encoding: 292 66596 36
Width: 416
VWidth: 952
Flags: W
HStem: -0.015625 21G<164.895 295.262>
VStem: -1.02832 130.368<430.802 799.984> 164.895 130.367<-0.015625 369.167>
LayerCount: 2
Fore
SplineSet
295.26171875 488.875 m 1
 295.26171875 -0.015625 l 1
 164.89453125 -0.015625 l 1
 164.89453125 369.166992188 l 1
 -1.0283203125 311.09375 l 1
 -1.0283203125 799.984375 l 1
 129.33984375 799.984375 l 1
 129.33984375 430.801757812 l 1
 295.26171875 488.875 l 1
EndSplineSet
Validated: 524289
EndChar
StartChar: u10425
Encoding: 293 66597 37
Width: 772
VWidth: 952
Flags: W
HStem: -0.015625 21G<-0.364258 71.8297 521.107 651.479>
VStem: -0.364258 130.372<195.143 799.984> 521.107 130.372<-0.015625 714.801>
LayerCount: 2
Fore
SplineSet
521.107421875 799.984375 m 1
 651.479492188 799.984375 l 1
 651.479492188 -0.015625 l 1
 521.107421875 -0.015625 l 1
 521.107421875 714.80078125 l 1
 58.8974609375 -0.015625 l 1
 -0.3642578125 -0.015625 l 1
 -0.3642578125 799.984375 l 1
 130.0078125 799.984375 l 1
 130.0078125 195.142578125 l 1
 521.107421875 799.984375 l 1
EndSplineSet
Validated: 524289
EndChar
StartChar: u10426
Encoding: 294 66598 38
Width: 722
VWidth: 952
Flags: W
VStem: 395.99 59.2598<770.347 798.853>
LayerCount: 2
Fore
SplineSet
247.846679688 585.163085938 m 2
 247.846679688 496.27734375 l 2
 247.846679688 484.047005468 255.375862961 473.059149729 266.786132812 468.637695312 c 2
 395.990234375 418.5703125 l 1
 395.990234375 178.943359375 l 1
 295.67578125 256.688476562 l 2
 290.448528608 260.79168874 284.211111851 262.965820312 277.666563417 262.965820312 c 0
 264.60137575 262.965820312 252.951858506 254.459290308 249.15625 242.147460938 c 2
 214.653320312 147.262695312 l 1
 71.98828125 257.823242187 71.98828125 257.823242188 71.7381181788 257.975969195 c 0
 66.1628891498 261.379701176 60.9540617411 262.974609375 55.4130068037 262.974609375 c 0
 42.3935327985 262.974609375 30.7263525322 254.445137975 26.93359375 242.154296875 c 2
 1.9716796875 173.51171875 l 2
 0.461092633125 169.917430039 -0.318359375 166.027741187 -0.318359375 162.083767678 c 0
 -0.318359375 152.631700924 4.09040702316 143.87118341 11.705078125 138.192382812 c 2
 185.349609375 6.123046875 l 2
 190.552463077 2.09053314271 196.73738493 -0.0439453125 203.219250857 -0.0439453125 c 0
 216.279274829 -0.0439453125 227.929790966 8.46420988952 231.7265625 20.7744140625 c 2
 266.229492188 115.66015625 l 1
 407.4921875 6.1787109375 l 2
 412.757758509 2.09831071886 418.95539671 -0.0537109375 425.441029131 -0.0537109375 c 0
 441.945009191 -0.0537109375 455.25 13.1874729652 455.25 29.6123046875 c 2
 455.25 395.606445312 l 1
 563.072265625 353.82421875 l 2
 566.515301388 352.490481434 570.108176564 351.8125 573.733109714 351.8125 c 0
 590.070017137 351.8125 603.393554688 365.131959789 603.393554688 381.463867188 c 2
 603.393554688 470.350585938 l 2
 603.393554688 482.580924219 595.864371414 493.568779958 584.454101562 497.990234375 c 2
 455.25 548.057617188 l 1
 455.25 770.346679688 l 2
 455.25 786.70095309 441.973851592 799.977539062 425.620117188 799.977539062 c 0
 409.266382783 799.977539062 395.990234375 786.70095309 395.990234375 770.346679688 c 2
 395.990234375 571.021484375 l 1
 288.16796875 612.803710938 l 2
 284.726313462 614.137281175 281.132552871 614.815429688 277.507124661 614.815429688 c 0
 261.170005749 614.815429688 247.846679688 601.495742655 247.846679688 585.163085938 c 2
EndSplineSet
Validated: 524297
EndChar
StartChar: u10427
Encoding: 295 66599 39
Width: 776
VWidth: 952
Flags: W
VStem: -1.3584 168.358<259.307 540.581> 482.115 168.359<259.386 540.665>
LayerCount: 2
Fore
SplineSet
228.584960938 513.403320312 m 2
 225.141895253 514.73706922 221.549021051 515.415039062 217.923937478 515.415039062 c 0
 201.586405562 515.415039062 188.262695312 502.095764613 188.262695312 485.763671875 c 2
 188.262695312 396.877929688 l 2
 188.262695312 384.647661838 195.790830244 373.660769507 207.201171875 369.23828125 c 2
 294.927734375 335.241210938 l 1
 294.927734375 63.15625 l 1
 231.700375492 80.0575834182 187.725839177 147.48270495 175.031439744 246.990416637 c 0
 170.23244893 284.608312366 167 346.18585416 167 399.987827307 c 0
 167 453.81175939 170.220462536 515.26488162 175.007651525 552.790470514 c 0
 187.722439516 652.458544663 231.677379993 719.909467686 294.927734375 736.813476562 c 1
 294.927734375 487.692382812 l 1
 228.584960938 513.403320312 l 2
324.56026597 799.982421875 m 0
 144.418568704 799.982421875 -1.3583984375 621.072662916 -1.3583984375 399.987615888 c 0
 -1.3583984375 178.8984972 144.416348861 -0.0146484375 324.55521061 -0.0146484375 c 0
 504.69710158 -0.0146484375 650.474609375 178.895423885 650.474609375 399.980275925 c 0
 650.474609375 621.068906875 504.699189523 799.982421875 324.56026597 799.982421875 c 0
474.08326987 552.987490819 m 0
 478.882909125 515.366379081 482.115234375 453.79130493 482.115234375 399.980360768 c 0
 482.115234375 346.150408465 478.895101227 284.697709431 474.108238142 247.175645218 c 0
 461.394599915 147.519160077 417.436140357 80.06452906 354.1875 63.15625 c 1
 354.1875 312.275390625 l 1
 420.53125 286.564453125 l 2
 423.972905288 285.230882888 427.566665879 284.552734375 431.192094089 284.552734375 c 0
 447.529213001 284.552734375 460.852539062 297.872421407 460.852539062 314.205078125 c 2
 460.852539062 403.08984375 l 2
 460.852539062 415.321791618 453.324669242 426.308297033 441.9140625 430.729492188 c 2
 354.1875 464.7265625 l 1
 354.1875 736.8125 l 1
 417.418158616 719.912355395 461.387935245 652.497595048 474.08326987 552.987490819 c 0
EndSplineSet
Validated: 524297
EndChar
StartChar: u10428
Encoding: 298 66600 40
Width: 512
VWidth: 761
Flags: W
HStem: -0.0146484 47.4092<107.426 223.237> 355.537 47.4082<106.231 224.918> 592.574 47.4082<105.912 222.807>
VStem: 0.0136719 47.4072<112.562 289.711 443.08 528.122> 284.447 142.229<195.239 446.03>
LayerCount: 2
Fore
SplineSet
285.016601562 341.96484375 m 1
 253.843094353 380.926153101 211.063824232 402.9453125 166.542508275 402.9453125 c 0
 74.2803944259 402.9453125 0.013671875 313.092003582 0.013671875 201.466555031 c 0
 0.013671875 86.8047432164 76.917997785 -0.0146484375 178.485046082 -0.0146484375 c 0
 312.851862335 -0.0146484375 426.67578125 146.741824148 426.67578125 319.984848759 c 0
 426.67578125 493.420429356 312.706704846 639.982421875 177.840273268 639.982421875 c 0
 86.8855799176 639.982421875 14.9283705273 571.00791876 2.24846971147 471.669093662 c 0
 1.88655842611 468.833752723 1.7763671875 467.615011918 1.7763671875 466.447529609 c 0
 1.7763671875 453.39817623 12.4127535736 442.764648438 25.4656149882 442.764648438 c 0
 39.3679875288 442.764648438 47.8831286091 454.720035673 50.9183304374 478.500646996 c 0
 58.8754323685 540.844029409 111.030936042 592.57421875 165.929790215 592.57421875 c 0
 225.209996226 592.57421875 273.688638385 535.519225129 284.146211184 453.444143239 c 0
 286.497100428 434.99345388 288.157226562 404.449529129 288.157226562 379.647249537 c 0
 288.157226562 367.110262317 287.804210509 361.571217992 286.553753139 354.487741122 c 0
 285.42842442 348.113081622 285.075278128 345.236062311 285.016601562 341.96484375 c 1
47.4208984375 201.470400751 m 0
 47.4208984375 286.089677572 100.839997579 355.537109375 165.929309313 355.537109375 c 0
 231.025367324 355.537109375 284.447265625 286.089895234 284.447265625 201.466547428 c 0
 284.447265625 116.846330509 231.021218572 47.39453125 165.92681153 47.39453125 c 0
 100.841919995 47.39453125 47.4208984375 116.850055716 47.4208984375 201.470400751 c 0
EndSplineSet
Validated: 524297
EndChar
StartChar: u10429
Encoding: 299 66601 42
Width: 534
VWidth: 761
Flags: W
HStem: -0.0146484 47.4092<196.309 333.422> 296.279 47.4092<195.035 261.256 318.141 341.776> 592.574 47.4082<196.314 333.421>
VStem: 0.522461 142.22<102.203 240.749 399.216 537.76> 387.892 48.7539<97.7568 171.959 468.008 542.207>
LayerCount: 2
Fore
SplineSet
412.961955743 467.734375 m 4
 426.677599745 467.734375 436.645507812 479.106732806 436.645507812 494.754871822 c 4
 436.645507812 568.766362267 339.007878967 639.982421875 237.537698306 639.982421875 c 4
 110.737284848 639.982421875 0.5224609375 560.069668717 0.5224609375 468.131308871 c 4
 0.5224609375 406.700901998 48.6387223268 350.792909959 128.0234375 319.983398438 c 5
 48.638262082 289.174327262 0.5224609375 233.266741925 0.5224609375 171.835148629 c 4
 0.5224609375 79.8940386973 110.728127962 -0.0146484375 237.528250832 -0.0146484375 c 4
 339.007855371 -0.0146484375 436.645507812 71.1964116624 436.645507812 145.209561683 c 4
 436.645507812 160.861175895 426.679261836 172.233398438 412.962696179 172.233398438 c 4
 399.861814974 172.233398438 391.096885545 161.792372535 387.891633752 142.368056756 c 4
 379.307764593 90.3484976296 323.282830094 47.39453125 264.017496063 47.39453125 c 4
 196.509471037 47.39453125 142.7421875 102.561857309 142.7421875 171.82771906 c 4
 142.7421875 240.465220536 195.893230222 296.279296875 261.255859375 296.279296875 c 6
 318.140625 296.279296875 l 6
 331.222875046 296.279296875 341.844726562 306.901585991 341.844726562 319.984375 c 4
 341.844726562 333.066894534 331.223144534 343.688476562 318.140625 343.688476562 c 6
 261.255859375 343.688476562 l 6
 195.895941096 343.688476562 142.7421875 399.499661163 142.7421875 468.127259739 c 4
 142.7421875 537.394414805 196.513057948 592.57421875 264.011580144 592.57421875 c 4
 323.27460679 592.57421875 379.308753462 549.614217139 387.891928135 497.598203848 c 4
 391.096902043 478.175324581 399.861849619 467.734375 412.961955743 467.734375 c 4
EndSplineSet
Validated: 524297
EndChar
StartChar: u1042A
Encoding: 300 66602 43
Width: 548
VWidth: 761
Flags: W
HStem: -0.0146484 47.4092<196.623 330.724> 296.279 47.4092<194.99 261.211 318.096 341.731> 592.574 47.4082<196.626 331.959>
VStem: 0.477539 142.22<102.168 240.749 399.216 537.795> 403.254 47.4091<135.081 505.119>
LayerCount: 2
Fore
SplineSet
0.4775390625 171.835148629 m 0
 0.4775390625 79.7308918365 110.894787115 -0.0146484375 238.424157837 -0.0146484375 c 0
 348.572522762 -0.0146484375 422.581628155 61.6385240728 440.144554362 168.02822061 c 0
 446.359284483 205.674751932 450.663321481 267.873687383 450.663321481 320.038093506 c 0
 450.663321481 372.460659825 446.797354236 431.654865111 441.132785 465.966006804 c 0
 422.763135678 577.233715689 349.669369059 639.982421875 238.427167556 639.982421875 c 0
 110.902487832 639.982421875 0.4775390625 560.231718041 0.4775390625 468.131308871 c 0
 0.4775390625 406.700901998 48.5938004518 350.792909959 127.978515625 319.983398438 c 1
 48.593340207 289.174327262 0.4775390625 233.266741925 0.4775390625 171.835148629 c 0
261.2109375 343.688476562 m 2
 195.851019221 343.688476562 142.697265625 399.499661163 142.697265625 468.127259739 c 0
 142.697265625 537.394567751 196.468288255 592.57421875 263.967337619 592.57421875 c 0
 329.920476024 592.57421875 380.470865755 542.301717494 393.427448195 463.825783648 c 0
 399.173638271 429.022035487 403.254214341 369.271926319 403.254214341 319.936700367 c 0
 403.254214341 270.324019919 399.607259128 213.56298425 394.388902148 181.957407443 c 0
 380.674739009 98.8960074524 330.75713964 47.39453125 263.964373784 47.39453125 c 0
 196.462712657 47.39453125 142.697265625 102.563703418 142.697265625 171.82771906 c 0
 142.697265625 240.465220535 195.848308348 296.279296875 261.2109375 296.279296875 c 2
 318.095703125 296.279296875 l 2
 331.177953171 296.279296875 341.799804688 306.901585991 341.799804688 319.984375 c 0
 341.799804688 333.066894534 331.17822266 343.688476562 318.095703125 343.688476562 c 2
 261.2109375 343.688476562 l 2
EndSplineSet
Validated: 524297
EndChar
StartChar: u1042B
Encoding: 301 66603 44
Width: 637
VWidth: 761
Flags: W
HStem: -0.0146484 47.4092<201.145 319.344> 305.559 47.4082<263.462 384.777> 592.574 47.4082<208.18 319.183>
VStem: -0.475586 134.687<194.712 446.241> 158.786 47.4072<410.47 453.739> 386.28 134.711<195.365 312.692 355.947 444.598>
LayerCount: 2
Fore
SplineSet
260.255600969 47.39453125 m 4
 199.394815782 47.39453125 152.209320801 106.882559349 140.543882034 198.318328971 c 4
 136.781406976 227.809273067 134.211914062 277.180924778 134.211914062 319.984248181 c 4
 134.211914062 365.120205754 136.952510605 413.49347931 141.5542258 449.580724212 c 4
 145.469992223 480.28867025 150.374067751 499.699711876 158.786132812 517.787109375 c 5
 159.132314665 488.412025167 160.968960965 463.831884838 164.125689534 446.326941186 c 4
 179.02984208 363.679242866 250.083578981 305.55859375 336.218005688 305.55859375 c 4
 353.171725647 305.55859375 370.072724099 307.96695764 386.280273438 312.692382812 c 5
 386.020457059 272.124285996 383.418175504 225.327099917 379.879905214 197.593683288 c 4
 368.287713914 106.732600145 321.028624162 47.39453125 260.255600969 47.39453125 c 4
260.256424057 592.57421875 m 4
 320.428274554 592.57421875 368.164254955 534.207223218 379.286263719 447.035904434 c 4
 381.832286643 427.080860282 384.399370429 392.153871882 385.513671875 362.307617188 c 5
 370.19254238 356.140193028 353.446873919 352.966796875 336.223172815 352.966796875 c 4
 272.640037021 352.966796875 221.759755145 393.902204848 210.968884318 453.73934001 c 4
 207.974037839 470.346251206 206.193359375 498.251711115 206.193359375 528.577792068 c 4
 206.193359375 545.771591772 206.779262034 562.115497957 207.915039062 576.604492188 c 5
 224.216471511 587.132081885 242.05328166 592.57421875 260.256424057 592.57421875 c 4
260.256132561 -0.0146484375 m 4
 404.369794379 -0.0146484375 520.991210938 143.112632445 520.991210938 319.98063116 c 4
 520.991210938 496.851863031 404.371217644 639.982421875 260.259980734 639.982421875 c 4
 116.146359709 639.982421875 -0.4755859375 496.854594266 -0.4755859375 319.986772417 c 4
 -0.4755859375 143.115692844 116.144583285 -0.0146484375 260.256132561 -0.0146484375 c 4
EndSplineSet
Validated: 524297
EndChar
StartChar: u1042C
Encoding: 302 66604 45
Width: 637
VWidth: 761
Flags: W
HStem: -0.0146484 47.4092<201.146 319.373> 592.574 47.4082<201.14 319.37>
VStem: -0.475586 134.687<194.707 445.184> 386.304 134.688<194.781 445.263>
LayerCount: 2
Fore
SplineSet
379.96998416 441.665789312 m 4
 383.733983074 412.161079044 386.303710938 362.790414908 386.303710938 319.979636524 c 4
 386.303710938 277.153614957 383.744115073 227.88434323 379.990924319 198.465766498 c 4
 368.310687987 106.91275165 321.138019059 47.39453125 260.255600969 47.39453125 c 4
 199.396244922 47.39453125 152.209621942 106.880198952 140.545340961 198.306893644 c 4
 136.781664559 227.807254086 134.211914062 277.177120882 134.211914062 319.984248181 c 4
 134.211914062 362.80617401 136.771663059 412.076706395 140.524909077 441.497969113 c 4
 152.205549366 533.061161364 199.370030987 592.57421875 260.253810808 592.57421875 c 4
 321.121975597 592.57421875 368.305922182 533.096413251 379.96998416 441.665789312 c 4
260.256132561 -0.0146484375 m 4
 404.369794379 -0.0146484375 520.991210938 143.112632445 520.991210938 319.98063116 c 4
 520.991210938 496.851863031 404.371217644 639.982421875 260.259980734 639.982421875 c 4
 116.146359709 639.982421875 -0.4755859375 496.854594266 -0.4755859375 319.986772417 c 4
 -0.4755859375 143.115692844 116.144583285 -0.0146484375 260.256132561 -0.0146484375 c 4
EndSplineSet
Validated: 524297
EndChar
StartChar: u1042D
Encoding: 303 66605 46
Width: 637
VWidth: 761
Flags: W
VStem: -0.475586 134.687<194.622 445.274> 386.304 134.688<194.692 445.35>
LayerCount: 2
Fore
SplineSet
379.877693668 442.388165778 m 0
 383.717684641 412.288987421 386.303710938 363.028043607 386.303710938 319.979636524 c 0
 386.303710938 276.917135671 383.72760799 227.755157818 379.898163619 197.737093499 c 0
 369.727578675 118.012401516 334.56084967 64.0485301387 283.961914062 50.521484375 c 1
 283.961914062 589.447265625 l 1
 334.545864854 575.926512791 369.721670425 521.994591216 379.877693668 442.388165778 c 0
260.259980734 639.982421875 m 0
 116.146359709 639.982421875 -0.4755859375 496.854594266 -0.4755859375 319.986772417 c 0
 -0.4755859375 143.115692844 116.144583285 -0.0146484375 260.256132561 -0.0146484375 c 0
 404.369794379 -0.0146484375 520.991210938 143.112632445 520.991210938 319.98063116 c 0
 520.991210938 496.851863031 404.371217644 639.982421875 260.259980734 639.982421875 c 0
236.553710938 589.447265625 m 1
 236.553710938 50.521484375 l 1
 185.972855312 64.0422341802 150.792838242 117.98257864 140.637068271 197.587267052 c 0
 136.797816036 227.68074876 134.211914062 276.941293313 134.211914062 319.984248181 c 0
 134.211914062 363.043124489 136.78820405 412.206227794 140.61780583 442.22728765 c 0
 150.789174409 521.962801298 185.953307193 575.924483821 236.553710938 589.447265625 c 1
EndSplineSet
Validated: 524297
EndChar
StartChar: u1042E
Encoding: 304 66606 47
Width: 405
VWidth: 761
Flags: W
HStem: -0.015625 21G<118.837 166.246>
VStem: 118.837 47.4092<-0.015625 316.485 456.817 639.984>
LayerCount: 2
Fore
SplineSet
0.3232421875 468.130859375 m 2
 0.3232421875 481.197225691 10.9811835468 491.852539062 24.0507725056 491.852539062 c 0
 26.9509182421 491.852539062 29.8253762268 491.31010211 32.5791015625 490.243164062 c 2
 118.836914062 456.817382812 l 1
 118.836914062 592.576171875 l 1
 118.836914062 639.984375 l 1
 166.24609375 639.984375 l 1
 166.24609375 438.446289062 l 1
 269.609375 398.392578125 l 2
 278.7377138 394.855133044 284.760742188 386.064966638 284.760742188 376.280273438 c 2
 284.760742188 305.171875 l 2
 284.760742188 292.106040941 274.102417705 281.451171875 261.032346343 281.451171875 c 0
 258.131769835 281.451171875 255.256379492 281.993715582 252.502929688 283.060546875 c 2
 166.24609375 316.485351562 l 1
 166.24609375 47.392578125 l 1
 166.24609375 -0.015625 l 1
 118.836914062 -0.015625 l 1
 118.836914062 334.856445312 l 1
 15.4736328125 374.911132812 l 2
 6.34588651979 378.448348283 0.3232421875 387.238132541 0.3232421875 397.022460938 c 2
 0.3232421875 468.130859375 l 2
EndSplineSet
Validated: 524289
EndChar
StartChar: u1042F
Encoding: 305 66607 48
Width: 520
VWidth: 730
Flags: W
HStem: 118.5 106.665<115.764 281.534>
VStem: -3.33105 50.0098<0.514447 56.3881> 352.221 47.4092<616.278 639.913>
LayerCount: 2
Fore
SplineSet
399.629882812 616.278320312 m 2
 399.629882812 629.360460963 389.007703098 639.982421875 375.925292969 639.982421875 c 0
 362.842882839 639.982421875 352.220703125 629.360460963 352.220703125 616.278320312 c 2
 352.220703125 153.458984375 l 1
 313.823937551 198.9850039 257.760342079 225.165039062 198.66478855 225.165039062 c 0
 91.7997560251 225.165039062 -3.3310546875 139.329403654 -3.3310546875 42.9060903138 c 0
 -3.3310546875 14.7815650625 4.78441191693 -0.0146484375 20.2102264634 -0.0146484375 c 0
 31.3177237245 -0.0146484375 39.3767342369 7.65631442633 46.6787523329 25.1793972449 c 0
 69.3648924786 79.6206636707 132.472540595 118.5 198.153656914 118.5 c 0
 263.832729459 118.5 326.9337995 79.6229435035 349.620791232 25.1799289703 c 0
 356.916506087 7.6720674363 364.971076393 -0.0146484375 376.021076918 -0.0146484375 c 0
 389.02965731 -0.0146484375 399.629882812 10.6283643015 399.629882812 23.689453125 c 2
 399.629882812 616.278320312 l 2
EndSplineSet
Validated: 524297
EndChar
StartChar: u10430
Encoding: 306 66608 49
Width: 513
VWidth: 730
Flags: W
VStem: 345.877 46.3369<616.595 639.732>
LayerCount: 2
Fore
SplineSet
-1.6298828125 227.090820312 m 2
 -1.6298828125 157.590820312 l 2
 -1.6298828125 148.028382523 4.2567778939 139.437522497 13.1787109375 135.979492188 c 2
 360.686523438 1.3173828125 l 2
 363.383016059 0.272063712945 366.192963377 -0.255859375 369.060333501 -0.255859375 c 0
 381.804823276 -0.255859375 392.213867188 10.1671375512 392.213867188 22.9287109375 c 2
 392.213867188 616.594726562 l 2
 392.213867188 629.380808684 381.832081945 639.76171875 369.044921875 639.76171875 c 0
 356.258031292 639.76171875 345.876953125 629.38107816 345.876953125 616.594726562 c 2
 345.876953125 126.263671875 l 1
 29.8974609375 248.702148438 l 2
 27.2004278818 249.746698082 24.3894736229 250.274414062 21.522564369 250.274414062 c 0
 8.77816019909 250.274414062 -1.6298828125 239.852369299 -1.6298828125 227.090820312 c 2
EndSplineSet
Validated: 524297
EndChar
StartChar: u10431
Encoding: 307 66609 50
Width: 564
VWidth: 730
Flags: W
VStem: 396.299 47.4082<616.271 639.906>
LayerCount: 2
Fore
SplineSet
443.70703125 616.271484375 m 2
 443.70703125 629.354382793 433.086046892 639.975585938 420.003417969 639.975585938 c 0
 406.920519546 639.975585938 396.298828125 629.354113308 396.298828125 616.271484375 c 2
 396.298828125 137.377929688 l 1
 284.857421875 206.471679688 l 2
 280.994205531 209.028263031 276.562988745 210.365234375 271.952743729 210.365234375 c 0
 262.248041663 210.365234375 253.437642377 204.44276333 249.841796875 195.501953125 c 2
 212.50390625 113.36328125 l 1
 211.781361549 113.937210532 211.026407798 114.468353448 210.244140625 114.953125 c 2
 62.6328125 206.471679688 l 2
 58.7726029776 209.027883258 54.3402316011 210.365234375 49.728437475 210.365234375 c 0
 40.0187232833 210.365234375 31.2072388692 204.43901551 27.611328125 195.490234375 c 2
 2.5302734375 140.30078125 l 2
 0.856436557925 137.006850064 -0.0087890625 133.383555619 -0.0087890625 129.667981161 c 0
 -0.0087890625 121.089933767 4.60208193306 113.178284165 12.072265625 108.938476562 c 2
 184.927734375 3.7548828125 l 2
 188.756621924 1.26288096228 193.134085281 -0.0390625 197.683938517 -0.0390625 c 0
 207.388614005 -0.0390625 216.197100387 5.88237441713 219.793945312 14.82421875 c 2
 257.131835938 96.9619140625 l 1
 257.854712728 96.3878934613 258.60936759 95.857286953 259.391601562 95.373046875 c 2
 407.483398438 3.5556640625 l 2
 411.322685969 1.17434621559 415.580095569 -0.0517578125 420.009474667 -0.0517578125 c 0
 433.071730087 -0.0517578125 443.70703125 10.6000672043 443.70703125 23.6826171875 c 2
 443.70703125 616.271484375 l 2
EndSplineSet
Validated: 524293
EndChar
StartChar: u10432
Encoding: 308 66610 51
Width: 521
VWidth: 730
Flags: W
HStem: 414.803 106.665<116.266 282.026>
VStem: -1.83984 47.4092<0.054525 23.6895> 351.113 50.0085<583.58 639.453>
LayerCount: 2
Fore
SplineSet
199.633797891 521.467773438 m 0
 133.96905579 521.467773438 70.8905347102 560.327756554 48.2115705274 614.752541344 c 0
 40.9085674564 632.278225818 32.8359035923 639.98144571 21.7722254181 639.981894705 c 0
 8.76123186904 639.982422727 -1.83984375 629.340264143 -1.83984375 616.278320312 c 2
 -1.83984375 23.689453125 l 2
 -1.83984375 10.6067147975 8.78195706431 -0.0146484375 21.865234375 -0.0146484375 c 0
 34.9482421875 -0.0146484375 45.5693359375 10.6064453125 45.5693359375 23.689453125 c 2
 45.5693359375 486.508789062 l 1
 83.966101511 440.982769537 140.029696984 414.802734375 199.125250512 414.802734375 c 0
 305.990283037 414.802734375 401.12109375 500.638369783 401.12109375 597.061683124 c 0
 401.12109375 625.186208375 393.005627146 639.982421875 377.579812599 639.982421875 c 0
 366.472773492 639.982421875 358.41458384 632.312184298 351.112614179 614.78945563 c 0
 328.425694 560.347056515 265.317232596 521.467773438 199.633797891 521.467773438 c 0
EndSplineSet
Validated: 524329
EndChar
StartChar: u10433
Encoding: 309 66611 52
Width: 413
VWidth: 759
Flags: W
HStem: 249.787 46.3418<212.414 272.115> 572.863 61.6025<115.109 232.445>
VStem: 0.263672 135.927<370.329 535.218> 272.115 45.3105<441.896 525.883>
LayerCount: 2
Fore
SplineSet
199.578677219 572.86328125 m 0
 233.856464092 572.86328125 272.11328125 503.891788775 272.11328125 442.093910776 c 0
 272.11328125 441.901179173 272.113500404 441.825807709 272.114291352 441.746515599 c 0
 272.115014623 441.674008184 272.115234375 441.64045737 272.115234375 441.602539062 c 2
 272.115234375 296.12890625 l 1
 192.166372213 306.739655258 136.190429688 370.543059281 136.190429688 451.060915236 c 0
 136.190429688 509.288020252 169.276194053 572.86328125 199.578677219 572.86328125 c 0
272.115234375 249.787109375 m 1
 272.115234375 -5.537109375 l 1
 317.42578125 -5.537109375 l 1
 317.42578125 39.7744140625 l 1
 317.423828125 441.896484375 l 2
 317.423828125 550.285510246 248.10157765 634.465820312 158.843517253 634.465820312 c 0
 71.3749305707 634.465820312 0.263671875 552.213985833 0.263671875 451.042218579 c 0
 0.263671875 334.057127267 104.862992594 256.620942901 272.115234375 249.787109375 c 1
EndSplineSet
Validated: 524297
EndChar
StartChar: u10434
Encoding: 310 66612 53
Width: 482
VWidth: 761
Flags: W
HStem: 291.021 49.2207<110.942 149.646>
VStem: -0.421875 47.2656<73.3638 223.804> 149.646 103.987<100.405 279.771 334.515 340.242> 338.664 47.2959<36.3378 213.506>
LayerCount: 2
Fore
SplineSet
149.645507812 291.021484375 m 1
 149.64453125 202.750976562 l 2
 149.64453125 129.872517019 127.446930449 55.5427031713 103.827148438 49.3291015625 c 1
 69.5157896877 57.2176411647 46.84375 95.7346004439 46.84375 146.136767192 c 0
 46.84375 211.921263528 89.4794584281 272.010338744 149.645507812 291.021484375 c 1
338.6640625 127.93834061 m 0
 338.6640625 102.951991805 334.506030221 84.3785578337 322.482354841 55.6565836233 c 0
 318.840777025 46.9576375203 317.82421875 43.3706853317 317.82421875 39.2202298516 c 0
 317.82421875 27.1429464228 328.718518305 16.7568359375 341.386739356 16.7568359375 c 0
 351.733396142 16.7568359375 359.509834962 23.5417573937 367.374217771 39.4308392932 c 0
 378.917009905 62.7517246081 385.959960938 96.6042815343 385.959960938 128.764830914 c 0
 385.959960938 218.02852068 332.013477328 300.925435755 253.6328125 332.10546875 c 1
 253.6328125 387.60186903 253.632407995 515.11775691 253.631835938 639.956054688 c 1
 149.645507812 639.956054688 l 1
 149.645507812 340.2421875 l 1
 63.1726272194 320.614327774 -0.421875 238.08118299 -0.421875 145.4842666 c 0
 -0.421875 60.0549082238 49.3868320171 -0.0439453125 120.188946061 -0.0439453125 c 0
 210.900844424 -0.0439453125 251.584368945 85.2841028792 253.6015625 279.770507812 c 1
 305.376585897 250.457481906 338.6640625 191.041056179 338.6640625 127.93834061 c 0
EndSplineSet
Validated: 524297
EndChar
StartChar: u10435
Encoding: 311 66613 41
Width: 544
VWidth: 761
Flags: W
HStem: -0.0146484 47.4092<196.623 330.596> 298.105 47.9863<195.673 284.455 349.613 402.922>
VStem: 0.478516 142.22<102.168 240.142 399.823 537.626> 234.337 47.4385<418.113 542.985> 402.922 47.742<134.72 301.922 346.092 505.42>
LayerCount: 2
Fore
SplineSet
167.444335938 60.4501953125 m 1025
402.921875 346.091796875 m 1
 340.806474207 357.536756339 292.793096612 407.940381932 284.86731632 470.023460785 c 0
 282.969411891 484.889851979 281.775390625 513.065795372 281.775390625 542.985246186 c 0
 281.775390625 560.149372644 282.176750506 576.437902651 282.954101562 590.821289062 c 1
 341.347400566 581.319342574 381.496527025 536.08948961 392.911991241 466.948626787 c 0
 397.696508625 437.969896369 401.864692227 387.644291323 402.921875 346.091796875 c 1
0.478515625 171.835353806 m 0
 0.478515625 79.730673398 110.895114487 -0.0146484375 238.42467128 -0.0146484375 c 0
 348.566981661 -0.0146484375 422.582550754 61.6322759269 440.140264279 167.992516233 c 0
 446.328316279 205.478188657 450.644684144 267.414881131 450.663804805 318.997554199 c 0
 450.664005485 319.538936891 450.664390856 319.718853702 450.665546588 319.810733956 c 0
 450.666662124 319.899418682 450.666992188 319.93900917 450.666992188 319.984130603 c 0
 450.666992188 320.029366636 450.666662972 320.068598281 450.665527344 320.158691407 c 0
 450.664391716 320.248784533 450.664019254 320.432304269 450.663870078 320.97526059 c 0
 450.649632194 372.796886039 446.766654386 431.846273801 441.126798142 466.007832707 c 0
 422.76284251 577.241404072 349.66280544 639.982421875 238.427680998 639.982421875 c 0
 110.902997863 639.982421875 0.478515625 560.232076959 0.478515625 468.131690712 c 0
 0.478515625 406.700914472 48.5951142329 350.792386507 127.979492188 319.983398438 c 1
 48.5941503568 289.174655256 0.478515625 233.267340709 0.478515625 171.835353806 c 0
235.368164062 589.599609375 m 1
 234.69444047 575.473424807 234.336914062 559.040193048 234.336914062 542.199557651 c 0
 234.336914062 510.111797982 235.609722565 481.459191471 237.795836258 464.334634207 c 0
 248.76463833 378.412351314 316.700367064 310.064814901 403.0234375 298.10546875 c 1
 402.114865254 255.311715945 398.302853906 205.660973487 393.859704664 178.749544156 c 0
 380.56335723 98.2157392261 330.307099782 47.39453125 263.964890892 47.39453125 c 0
 196.463095813 47.39453125 142.698242188 102.56330356 142.698242188 171.827719107 c 0
 142.698242188 237.703393357 193.409048032 296.279296875 250.439470544 296.279296875 c 0
 271.941714356 296.279296875 284.915039062 305.199633476 284.915039062 319.984375 c 0
 284.915039062 334.768324855 271.942930186 343.688476562 250.443407149 343.688476562 c 0
 193.413847325 343.688476562 142.698242188 402.262020147 142.698242188 468.12781035 c 0
 142.698242188 526.291404074 181.348424859 576.95409081 235.368164062 589.599609375 c 1
EndSplineSet
Validated: 524297
EndChar
StartChar: u10436
Encoding: 312 66614 54
Width: 530
VWidth: 761
Flags: W
HStem: -0.535156 44.8145<119.284 201.456 286.963 369.649>
VStem: 0.0078125 98.5918<64.5496 126.759> 221.834 44.8164<64.5836 126.905> 389.885 44.8145<66.0781 126.905>
LayerCount: 2
Fore
SplineSet
266.650390625 359.377929688 m 1
 221.833984375 359.377929688 l 1
 221.833984375 126.90234375 l 2
 221.833984375 81.7344635915 193.9017909 44.279296875 160.21784078 44.279296875 c 0
 126.569938888 44.279296875 98.603515625 81.6899696574 98.603515625 126.700754042 c 0
 98.603515625 126.914186278 98.6030673772 126.994865837 98.6012233062 127.113345611 c 0
 98.6000371794 127.189553109 98.599609375 127.233541775 98.599609375 127.279296875 c 2
 98.599609375 639.46484375 l 1
 0.0078125 639.46484375 l 1
 0.0078125 127.141601562 l 2
 0.0078125 127.110561074 0.00759302258875 127.083675091 0.00683593751728 127.021972658 c 0
 0.00607885241423 126.960270222 0.005859375 126.901134822 0.005859375 126.758850298 c 0
 0.005859375 58.3546899279 68.9438639375 -0.53515625 149.019575215 -0.53515625 c 0
 190.999054909 -0.53515625 223.01901853 15.9529587324 244.2421875 48.498046875 c 1
 264.452613693 17.5023363293 295.360867304 -0.53515625 328.263326852 -0.53515625 c 0
 387.196962194 -0.53515625 434.696321976 56.3379409029 434.69921875 126.905273438 c 2
 434.69921875 639.46484375 l 1
 389.884765625 639.46484375 l 1
 389.884765625 127.240234375 l 2
 389.884765625 127.196701982 389.88432667 127.15873239 389.8828125 127.071289059 c 0
 389.88129833 126.983845735 389.880859375 126.899110316 389.880859375 126.694259694 c 0
 389.880859375 81.6877655356 361.911533864 44.279296875 328.261365057 44.279296875 c 0
 294.579275783 44.279296875 266.650390625 81.7344975391 266.650390625 126.905273438 c 2
 266.650390625 359.377929688 l 1
EndSplineSet
Validated: 524297
EndChar
StartChar: u10437
Encoding: 313 66615 55
Width: 739
VWidth: 761
Flags: W
HStem: 340.719 47.4209<231.268 329.202> 557.021 82.9629<60.837 112.125>
VStem: 0.5625 56.8545<473.709 553.126>
LayerCount: 2
Fore
SplineSet
78.419302186 639.983398438 m 0
 34.4797225159 639.983398438 0.5625 599.347979303 0.5625 546.705011981 c 0
 0.5625 463.957810575 66.6956173417 393.646426702 176.213867188 359.956054688 c 1
 286.127929688 16.4677734375 l 2
 289.268109688 6.6509487378 298.416410656 -0.013671875 308.751456346 -0.013671875 c 0
 319.888606476 -0.013671875 329.50511331 7.76979265638 331.890625 18.71484375 c 1
 435.840820312 358.34765625 l 1
 466.750127216 367.378210701 495.926891388 379.750667496 516.038187588 392.355487135 c 0
 554.56037977 416.499395102 581.664448345 453.818956335 595.554096811 501.840852222 c 0
 610.988724112 555.204338497 612.746925318 561.226487567 614.413816558 566.438716973 c 0
 616.259644956 572.210467895 616.862304688 574.997636809 616.862304688 577.762436872 c 0
 616.862304688 590.802870199 606.218593995 601.467773438 593.204073702 601.467773438 c 0
 581.765343173 601.467773438 573.279974753 593.482710293 568.354430269 578.08328827 c 0
 567.502336992 575.419269292 565.857390364 569.829964321 562.025567379 556.57867273 c 0
 561.135679954 553.501245147 561.123469983 553.459020914 561.080601834 553.310815301 c 0
 534.177913737 460.301682872 518.894636204 440.662189166 453.006835938 414.432617188 c 1
 522.041015625 639.984375 l 1
 417.743164062 639.984375 l 1
 343.546875 389.573242188 l 1
 331.896316684 388.61511591 320.321240645 388.139648438 308.646576585 388.139648438 c 0
 276.166669419 388.139648438 244.053263349 391.828965933 213.484375 399.072265625 c 1
 165.370117188 549.432617188 l 2
 145.744112705 610.756400779 117.67907305 639.983398438 78.419302186 639.983398438 c 0
230.068359375 347.24609375 m 1
 255.638851539 342.915583577 282.096544643 340.71875 308.680803909 340.71875 c 0
 315.523623633 340.71875 322.366395771 340.864307247 329.202148438 341.155273438 c 1
 282.478515625 183.459960938 l 1
 230.068359375 347.24609375 l 1
157.928710938 417.102539062 m 1
 95.2532633636 443.691960859 57.4169921875 485.551513188 57.4169921875 528.302068506 c 0
 57.4169921875 537.179676008 59.3249794982 544.797538003 62.869952067 550.073647169 c 0
 66.1872257311 555.01086393 70.5846343123 557.020507812 78.0707470333 557.020507812 c 0
 104.662477425 557.020507812 120.595554596 533.761653788 143.91015625 460.909179688 c 2
 157.928710938 417.102539062 l 1
EndSplineSet
Validated: 524297
EndChar
StartChar: u10438
Encoding: 314 66616 56
Width: 484
VWidth: 762
Flags: W
HStem: 302.654 49.2217<236.563 275.267>
VStem: 0.249023 47.2969<429.271 605.944> 18.8337 49.5511<515.638 625.731> 132.575 103.988<302.654 308.381 363.127 542.492> 339.365 47.2676<419.093 569.533>
LayerCount: 2
Fore
SplineSet
266.019891365 642.94140625 m 0xd8
 175.308573871 642.94140625 134.624944478 557.612419518 132.608398438 363.126953125 c 1
 80.9865560631 392.351702967 47.5458984375 451.663011134 47.5458984375 513.996239472 c 0xd8
 47.5458984375 540.180212743 53.3949865963 566.724094261 63.7955605664 587.739204962 c 0
 67.180489386 594.578698058 68.384765625 598.436945079 68.384765625 602.442049849 c 0
 68.384765625 615.48683496 57.7928859487 626.139648438 44.8227166516 626.139648438 c 0
 34.4751841838 626.139648438 26.6982378883 619.35368899 18.833664833 603.462283182 c 0xb8
 7.29163491869 580.140091381 0.2490234375 546.287630234 0.2490234375 514.129533183 c 0
 0.2490234375 424.869159307 54.196993088 341.971223246 132.576171875 310.791992188 c 1
 132.576171875 273.708718914 132.57606176 242.057225134 132.575664789 165.035259815 c 0
 132.57530465 95.1593860043 132.575195312 69.8967493237 132.575195312 56.561887818 c 0
 132.575195312 33.6679862712 132.575521017 26.5041779799 132.57656515 26.4326553651 c 0
 132.577792449 26.3485858432 132.578125 26.3150579517 132.578125 26.275390625 c 2
 132.578125 2.94140625 l 1
 236.563476562 2.94140625 l 1
 236.563476562 302.654296875 l 1
 323.0367071 322.282236032 386.6328125 404.816633353 386.6328125 497.412798519 c 0
 386.6328125 582.841859449 336.822799117 642.94140625 266.019891365 642.94140625 c 0xd8
236.563476562 351.875976562 m 1
 236.563476562 439.845703125 l 2
 236.563476562 439.884693007 236.563805778 439.918492528 236.564941406 439.99609375 c 0
 236.566077034 440.073694972 236.56640625 440.195302829 236.56640625 440.537186663 c 0
 236.56640625 483.009915277 243.452144574 526.21078397 254.707265884 554.35227201 c 0
 263.381925415 576.041760798 274.238720601 591.425775951 282.3828125 593.568359375 c 1
 316.693533505 585.679772836 339.365234375 547.162495946 339.365234375 496.760107812 c 0
 339.365234375 430.974698849 296.730110761 370.886690852 236.563476562 351.875976562 c 1
EndSplineSet
Validated: 524297
EndChar
StartChar: u10439
Encoding: 315 66617 57
Width: 558
VWidth: 761
Flags: W
HStem: -0.015625 21G<357.982 462.28> 521.463 118.521<0.0634766 357.982>
VStem: 357.982 104.298<-0.015625 521.463>
LayerCount: 2
Fore
SplineSet
462.280273438 -0.015625 m 1
 357.982421875 -0.015625 l 1
 357.982421875 521.462890625 l 1
 0.0634765625 521.462890625 l 1
 0.0634765625 639.984375 l 1
 462.280273438 639.984375 l 1
 462.280273438 -0.015625 l 1
EndSplineSet
Validated: 524289
EndChar
StartChar: u1043A
Encoding: 316 66618 58
Width: 616
VWidth: 761
Flags: W
HStem: -0.0136719 47.4082<196.866 329.802> 296.279 47.4092<194.038 340.778> 592.574 47.4082<196.869 330.759>
VStem: -0.473633 142.22<102.054 240.749 399.217 537.909> 402.303 118.693<135.418 504.845> 416.699 104.297<-0.015625 90.9434 549.024 639.984>
LayerCount: 2
Fore
SplineSet
520.99609375 -0.015625 m 1xf4
 416.69921875 -0.015625 l 1
 416.69921875 90.943359375 l 1
 384.357889919 32.2581040114 321.875948617 -0.013671875 240.595743456 -0.013671875 c 0
 110.643917998 -0.013671875 -0.4736328125 79.1977283385 -0.4736328125 171.835353806 c 0
 -0.4736328125 233.267340709 47.6420019192 289.174655256 127.02734375 319.983398438 c 1
 47.6430035165 350.792371868 -0.4736328125 406.700882761 -0.4736328125 468.131529332 c 0
 -0.4736328125 560.764872951 110.652472214 639.982421875 240.598207871 639.982421875 c 0
 321.870395696 639.982421875 384.357018369 607.707429898 416.69921875 549.024414062 c 1
 416.69921875 639.984375 l 1
 520.99609375 639.984375 l 1
 520.99609375 -0.015625 l 1xf4
260.258789062 296.279296875 m 1
 194.896428162 296.279296875 141.74609375 240.465504445 141.74609375 171.827719107 c 0
 141.74609375 102.56330356 195.510947375 47.39453125 263.012742454 47.39453125 c 0
 329.806517558 47.39453125 379.723624234 98.8967716126 393.437456383 181.960923681 c 0
 398.655618257 213.567128768 402.302734375 270.331186133 402.302734375 319.940941933 c 0xf8
 402.302734375 369.270412085 398.222466643 429.0192662 392.477186622 463.820034632 c 0
 379.520932024 542.299693477 328.970027548 592.57421875 263.015189181 592.57421875 c 0
 195.516544785 592.57421875 141.74609375 537.394989691 141.74609375 468.127890595 c 0
 141.74609375 399.500544966 194.899981599 343.688476562 260.258789062 343.688476562 c 1
 317.14453125 343.688476562 l 2
 330.073101333 343.688476562 340.848632812 332.912945083 340.848632812 319.984375 c 0
 340.848632812 307.055542994 330.072830636 296.279296875 317.14453125 296.279296875 c 2
 260.258789062 296.279296875 l 1
EndSplineSet
Validated: 524289
EndChar
StartChar: u1043B
Encoding: 317 66619 59
Width: 482
VWidth: 761
Flags: W
HStem: -0.015625 21G<281.535 385.834> 592.574 47.4072<103.568 220.825>
VStem: -1.13672 49.1415<443.08 535.004> 281.535 104.299<-0.015625 461.646>
LayerCount: 2
Fore
SplineSet
164.559716081 639.981445312 m 0
 286.350903083 639.981445312 386.424804688 498.341609491 386.424804688 325.964161878 c 0
 386.424804688 319.186270801 386.296479812 316.741034611 385.833984375 314.706054688 c 2
 385.833984375 -0.015625 l 1
 281.53515625 -0.015625 l 1
 281.53515625 438.197265625 l 2
 281.53515625 438.233576801 281.535049183 438.268951019 281.534758447 438.32869698 c 0
 281.534291545 438.424644732 281.534179688 438.482503477 281.534179688 438.628063331 c 0
 281.534179688 523.122408826 228.119899832 592.57421875 163.136645667 592.57421875 c 0
 108.146268176 592.57421875 55.965916283 540.8745344 48.0047483839 478.502877102 c 0
 44.9689722571 454.719131975 36.4550910788 442.764648438 22.5522868528 442.764648438 c 0
 8.4979514763 442.764648438 -1.13671875 454.564228969 -1.13671875 471.776573367 c 0
 -1.13671875 553.546808752 84.0089191753 639.981445312 164.559716081 639.981445312 c 0
EndSplineSet
Validated: 524289
EndChar
StartChar: u1043C
Encoding: 318 66620 60
Width: 593
VWidth: 761
Flags: W
HStem: -0.0136719 47.4092<194.565 324.166> 270.487 47.1826<113.468 244.934> 592.562 47.4202<196.859 325>
VStem: -0.228516 113.696<196.169 271.586 317.764 443.803> 392.925 104.297<126.877 232.567>
LayerCount: 2
Fore
SplineSet
263.092471165 592.536830347 m 0
 319.264538681 591.419091848 368.678937226 545.215228355 383.827148438 479.646484375 c 1
 342.859180599 381.759720989 247.194580534 317.669921875 142.050402597 317.669921875 c 0
 132.073730594 317.669921875 122.146933884 318.240707738 112.260742188 319.3828125 c 1
 112.237786597 356.641500911 114.458766808 398.863298916 117.834625145 425.344747314 c 0
 130.572730844 525.267035246 187.885780073 592.572228075 260.236333801 592.573233486 c 0
 260.730181261 592.573240349 261.024508821 592.570920581 261.628759298 592.562258966 c 0
 262.133756681 592.555020092 262.4850191 592.548917717 263.092471165 592.536830347 c 0
113.467773438 271.5859375 m 1
 121.189258628 270.864365239 129.824973104 270.487304688 138.629459661 270.487304688 c 0
 242.154824157 270.487304688 333.409530467 316.776918449 392.924804688 399.48046875 c 1
 392.924804688 232.567382812 l 1
 391.588809518 216.377465507 389.583313657 196.990359435 388.167319562 186.576827271 c 0
 376.948895068 104.074064945 324.483563644 47.3955078125 259.33210528 47.3955078125 c 0
 188.584955652 47.3955078125 130.702626636 113.681836595 118.608992301 208.550366174 c 0
 116.658645845 223.849861376 114.575543893 249.390404421 113.467773438 271.5859375 c 1
392.924804688 -0.015625 m 1
 497.221679688 -0.015625 l 1
 497.221679688 639.984375 l 1
 392.924804688 639.984375 l 1
 392.924804688 570.712890625 l 1
 358.823736715 615.713285614 310.077531904 639.982421875 253.792257029 639.982421875 c 0
 114.893517521 639.982421875 -0.228515625 494.960789181 -0.228515625 319.987142243 c 0
 -0.228515625 145.010007933 114.892166304 -0.013671875 253.790083185 -0.013671875 c 0
 310.076936063 -0.013671875 358.824139784 24.2562668175 392.924804688 69.2578125 c 1
 392.924804688 -0.015625 l 1
EndSplineSet
Validated: 524329
EndChar
StartChar: u1043D
Encoding: 319 66621 61
Width: 529
VWidth: 761
Flags: W
HStem: -0.0146484 47.9592<198.085 327.47> 592.533 47.4491<197.665 329.31>
VStem: 2.04102 112.49<194.061 445.879> 314.382 118.516<450.9 539.054>
LayerCount: 2
Fore
SplineSet
432.897460938 488.295364773 m 0
 432.897460938 461.700018334 404.331107802 436.940429688 373.646750765 436.940429688 c 0
 340.94264564 436.940429688 314.381835938 463.498754311 314.381835938 496.199799578 c 0
 314.381835938 520.289131106 329.000341485 542.012084783 351.33203125 551.107421875 c 1
 327.218206438 577.787284991 295.652242379 592.514794996 262.542550668 592.533305819 c 0
 190.179538098 592.573762219 132.846802529 525.301581015 120.113166537 425.41176098 c 0
 116.755709013 399.073971208 114.531005859 357.057151613 114.531005859 319.984375 c 0
 114.531005859 282.91177981 116.755693864 240.894920185 120.113108732 214.557262405 c 0
 132.838663154 114.730070748 190.154892429 47.3729984112 261.889049787 47.9445518684 c 0
 315.728696896 48.3735279318 367.957229977 88.7047381582 382.744227123 141.269699572 c 0
 388.255731233 160.862048036 396.668922441 170.161132812 408.883267469 170.161132812 c 0
 421.902768503 170.161132812 432.548314436 159.501087937 432.548314436 146.463854697 c 0
 432.548314436 143.995238561 432.057660852 141.466685649 430.513303253 135.976550365 c 0
 407.487084477 54.1191772956 337.453612372 -0.0146484375 254.580128404 -0.0146484375 c 0
 116.831251119 -0.0146484375 2.041015625 145.440368452 2.041015625 319.987142276 c 0
 2.041015625 494.354986246 116.698445725 639.982421875 253.984176228 639.982421875 c 0
 338.884492147 639.982421875 432.897460938 560.275928372 432.897460938 488.295364773 c 0
EndSplineSet
Validated: 524321
EndChar
StartChar: u1043E
Encoding: 320 66622 62
Width: 549
VWidth: 761
Flags: W
HStem: 283.424 49.2324<161.687 319.344> 591.115 49.2314<162.269 343.305>
VStem: 0.579102 116.106<391.806 532.016> 329.09 123.074<491.779 578.894>
LayerCount: 2
Fore
SplineSet
358.041992188 337.927734375 m 1
 357.959960938 337.890625 357.877929688 337.853515625 357.795898438 337.81640625 c 1
 357.877929688 337.853515625 357.959960938 337.890625 358.041992188 337.927734375 c 1
390.618777257 476.764648438 m 0
 424.169048702 476.764648438 452.1640625 503.927517429 452.1640625 536.480515418 c 0
 452.1640625 593.69486069 365.552588471 640.346679688 259.331247353 640.346679688 c 0
 117.86866243 640.346679688 0.5791015625 559.454431039 0.5791015625 461.890534394 c 0
 0.5791015625 362.883119161 119.948917106 283.423828125 268.685417766 283.423828125 c 0
 287.589528039 283.423828125 304.098238021 284.707631021 320.323242188 287.439453125 c 1
 222.1171875 0.3486328125 l 1
 320.581054688 0.3486328125 l 1
 442.197265625 355.874023438 l 1
 445.85888448 361.73461119 447.718220397 367.445168877 447.718220397 372.830470319 c 0
 447.718220397 385.348302958 436.234395872 396.404296875 423.232164274 396.404296875 c 0
 414.049222759 396.404296875 405.515639014 390.880899427 400.265777649 381.539207943 c 0
 384.341234225 353.202807923 328.18549062 332.65625 266.663893421 332.65625 c 0
 232.901002538 332.65625 196.171814449 338.635478632 163.790039062 349.403320312 c 1
 142.368254999 363.630808147 129.843381222 381.090194319 123.660106684 405.343523697 c 0
 119.326554065 422.341487865 116.684651446 444.717946244 116.684651446 464.424423447 c 0
 116.684651446 482.116351291 118.636596543 498.723460882 122.494787276 513.856942117 c 0
 129.647649985 541.913541981 141.850130181 559.795754537 163.78515625 574.366210938 c 1
 196.387148456 585.206620128 233.141872997 591.115234375 267.972994037 591.115234375 c 0
 296.384183203 591.115234375 322.184123121 587.193584337 344.86328125 579.427734375 c 1
 334.672936323 568.097686494 329.08984375 553.541383141 329.08984375 538.30304619 c 0
 329.08984375 504.340499271 356.661453579 476.764648438 390.618777257 476.764648438 c 0
EndSplineSet
Validated: 524297
EndChar
StartChar: u1043F
Encoding: 321 66623 63
Width: 612
VWidth: 761
Flags: W
HStem: -0.0146484 47.4092<154.172 229.408 291.087 370.03> 592.573 47.4092<193.995 326.612>
VStem: -0.475586 117.995<195.34 444.768> 236.554 47.4082<54.0248 97.2995 245.907 269.545> 403.245 117.746<192.848 444.766>
LayerCount: 2
Fore
SplineSet
260.258789062 29.1318359375 m 1
 276.731633829 9.56824866187 298.824096401 -0.0146484375 327.453251079 -0.0146484375 c 0
 399.61802608 -0.0146484375 455.61956234 59.9235488978 495.277373193 179.606769486 c 0
 513.424950307 234.374302743 520.991210938 275.774482384 520.991210938 320.304738239 c 0
 520.991210938 496.924626802 404.312328398 639.982421875 260.259980734 639.982421875 c 0
 116.204789249 639.982421875 -0.4755859375 496.926796263 -0.4755859375 320.308358865 c 0
 -0.4755859375 275.670521438 7.14405846145 234.214196941 25.5679339505 178.612952232 c 0
 64.9199499793 59.852864305 121.064035162 -0.0146484375 193.085887653 -0.0146484375 c 0
 221.692461626 -0.0146484375 243.786033548 9.57180585114 260.258789062 29.1318359375 c 1
260.397172038 592.573242188 m 0
 331.366434378 592.573242188 389.916543688 527.405192226 401.651629911 435.352740357 c 0
 404.037459732 416.637796082 405.357421875 389.959644385 405.357421875 360.453864903 c 0
 405.357421875 339.698518993 404.839637184 320.687178826 403.245393795 282.907183846 c 0
 401.276687889 236.253266549 400.750697689 218.520372511 400.705671578 197.284628661 c 0
 400.503654675 102.007042681 374.788884001 47.39453125 330.128630157 47.39453125 c 0
 302.447033909 47.39453125 284.124467437 67.187833735 283.963714461 97.2650634149 c 0
 283.963107715 97.3785869701 283.962785049 97.4486573831 283.962489972 97.5309742256 c 0
 283.96202756 97.6599724492 283.961914062 97.7056390351 283.961914062 97.7626953125 c 2
 283.961914062 245.91015625 l 2
 283.961914062 259.001464847 273.349121097 269.614257812 260.2578125 269.614257812 c 0
 247.165848117 269.614257812 236.553710938 259.000809035 236.553710938 245.907226562 c 2
 236.553710938 97.7509765625 l 2
 236.553710938 97.7025548344 236.55360163 97.6612245868 236.553205091 97.5597123219 c 0
 236.552844515 97.4674063806 236.552569796 97.406513707 236.552030999 97.2994701591 c 0
 236.406731275 68.4325710989 219.052210411 47.39453125 195.38487333 47.39453125 c 0
 148.802120273 47.39453125 120.000582177 107.192844183 119.794523762 204.336683543 c 0
 119.762213134 219.569153091 119.243278195 236.142847787 117.519402748 276.999282086 c 0
 115.681371976 320.561236393 115.158203125 339.480767668 115.158203125 362.388138907 c 0
 115.158203125 451.914249576 126.850902196 499.442404045 158.657157898 539.201467386 c 0
 186.201034433 573.632390098 222.307058013 592.573242188 260.397172038 592.573242188 c 0
EndSplineSet
Validated: 524297
EndChar
StartChar: u10440
Encoding: 322 66624 64
Width: 616
VWidth: 761
Flags: W
HStem: -0.0146484 47.4092<154.172 229.408 291.086 370.03> 325.154 47.4082<282.502 404.246> 592.573 47.4092<240.192 325.439>
VStem: -0.475586 117.98<195.334 444.768> 185.364 47.4707<424.301 463.201 537.475 565.718> 236.554 47.4082<54.0249 97.2994 245.907 269.545> 402.8 118.191<192.844 333.981 376.148 444.766>
LayerCount: 2
Fore
SplineSet
185.938476562 566.365234375 m 1
 185.55850133 556.782491661 185.364257812 546.67596076 185.364257812 536.488512614 c 0
 185.364257812 503.255764691 187.3947291 474.273336795 191.075043316 454.974220806 c 0
 205.576787341 378.928855226 272.101747565 325.154296875 351.676367447 325.154296875 c 0
 369.863901931 325.154296875 387.942959558 328.145007264 405.037109375 333.981445312 c 1
 404.69609912 318.991135897 404.252455652 306.768188389 402.800357337 272.356053029 c 0
 401.267531098 236.030810119 400.74854598 217.429194107 400.705751379 197.280575187 c 0
 400.503393622 102.006188769 374.788556452 47.39453125 330.129332553 47.39453125 c 0
 302.447653061 47.39453125 284.124465452 67.1882051423 283.96371444 97.2650673942 c 0
 283.963107709 97.3785880187 283.962785049 97.4486573831 283.962489972 97.5309742256 c 0
 283.96202756 97.6599724492 283.961914062 97.7056390351 283.961914062 97.7626953125 c 2
 283.961914062 245.91015625 l 2
 283.961914062 259.001464847 273.349121097 269.614257812 260.2578125 269.614257812 c 0
 247.165848117 269.614257812 236.553710938 259.000809035 236.553710938 245.907226562 c 2
 236.553710938 97.751953125 l 2
 236.553710938 97.7049538522 236.553602687 97.6618083583 236.553271866 97.576953186 c 0
 236.552845445 97.4675766727 236.552589077 97.4102209565 236.552031247 97.2993964836 c 0
 236.406731228 68.4325544635 219.052198362 47.39453125 195.38487333 47.39453125 c 0
 148.802808091 47.39453125 120.001430204 107.190875474 119.795088736 204.331216614 c 0
 119.762670052 219.593112837 119.243461407 236.146050861 117.504762235 277.349324119 c 0
 115.681180004 320.564135596 115.158203125 341.823320824 115.158203125 372.73773753 c 0
 115.158203125 470.449105473 136.324379594 528.351591129 185.938476562 566.365234375 c 1
260.300134157 592.573242188 m 0
 331.039662183 592.573242188 389.861299443 527.837587382 401.40602773 437.280345851 c 0
 403.122409443 423.816989289 404.444421803 404.701211964 405.013671875 385.115234375 c 1
 388.905667145 376.855549282 370.665043727 372.5625 351.678691178 372.5625 c 0
 294.512722544 372.5625 248.00233474 409.573539946 237.776071735 463.201486196 c 0
 234.696655575 479.35037306 232.834960938 507.334886135 232.834960938 537.47498785 c 0
 232.834960938 556.424748573 233.587358381 574.224820468 235.044921875 589.7578125 c 1
 243.370447818 591.632851192 251.80602493 592.573242188 260.300134157 592.573242188 c 0
260.2578125 29.1328125 m 1
 276.730170708 9.56876104824 298.823395392 -0.0146484375 327.453251079 -0.0146484375 c 0
 399.61802608 -0.0146484375 455.61956234 59.9235488978 495.277373193 179.606769486 c 0
 513.424950307 234.374302743 520.991210938 275.774482384 520.991210938 320.304738239 c 0
 520.991210938 496.924626802 404.312328398 639.982421875 260.259980734 639.982421875 c 0
 116.204789249 639.982421875 -0.4755859375 496.926796263 -0.4755859375 320.308358865 c 0
 -0.4755859375 275.670521438 7.14405846145 234.214196941 25.5679339505 178.612952232 c 0
 64.9199499793 59.852864305 121.064035162 -0.0146484375 193.085887653 -0.0146484375 c 0
 221.693040632 -0.0146484375 243.786500062 9.57221761088 260.2578125 29.1328125 c 1
EndSplineSet
Validated: 524297
EndChar
StartChar: u10441
Encoding: 323 66625 65
Width: 487
VWidth: 761
Flags: W
HStem: 237.021 47.4092<224.458 281.569> 592.574 47.4072<167.138 283.313>
VStem: 1.64453 104.298<343.688 343.694 343.694 458.198> 342.971 47.4092<350.292 526.929>
LayerCount: 2
Fore
SplineSet
105.942382812 284.430664062 m 1
 105.942382812 414.795898438 l 1
 105.942382812 438.197265625 l 2
 105.942382812 438.235876964 105.94260229 438.269676486 105.943359375 438.34765625 c 0
 105.94411646 438.425636014 105.944335938 438.505399289 105.944335938 438.702562123 c 0
 105.944335938 523.171728328 159.398164738 592.57421875 224.456353886 592.57421875 c 0
 289.551675827 592.57421875 342.970703125 523.128697288 342.970703125 438.503820993 c 0
 342.970703125 353.87765537 289.552247339 284.430664062 224.458007812 284.430664062 c 2
 105.943359375 284.430664062 l 1
 105.942382812 284.430664062 l 1
105.942382812 237.022460938 m 1
 105.943359375 237.021484375 l 1
 224.458007812 237.021484375 l 2
 316.246874867 237.021484375 390.379882812 327.039810793 390.379882812 438.49731704 c 0
 390.379882812 550.962268832 315.417534843 639.981445312 220.711683992 639.981445312 c 0
 106.175285514 639.981445312 10.031319629 510.118373134 1.66973296785 344.118252711 c 0
 1.65359966651 343.797963025 1.64813862197 343.695044555 1.64720453947 343.693683496 c 0
 1.64513359639 343.690665911 1.64453125 343.689272644 1.64453125 343.6875 c 2
 1.64453125 343.616210938 l 2
 1.28452328711 336.44567827 1.0537109375 328.424003164 1.0537109375 323.082783672 c 0
 1.0537109375 318.711321676 1.19801337685 316.665621011 1.64453125 314.70703125 c 2
 1.64453125 296.279296875 l 1
 1.64453125 47.3916015625 l 1
 1.64453125 -0.015625 l 1
 49.0537109375 -0.015625 l 1
 58.5341796875 -0.015625 l 1
 105.942382812 -0.015625 l 1
 105.942382812 47.3916015625 l 1
 105.942382812 237.022460938 l 1
EndSplineSet
Validated: 524297
EndChar
StartChar: u10442
Encoding: 324 66626 66
Width: 522
VWidth: 761
Flags: W
HStem: -0.0146484 47.4092<196.18 326.85> 296.279 47.4092<181.071 204.707 261.593 327.814> 592.574 47.4082<196.182 326.848>
VStem: 0.859375 142.22<196.334 443.637> 380.105 47.4082<100.099 243.11 396.855 539.864>
LayerCount: 2
Fore
SplineSet
261.58904569 47.39453125 m 0
 196.223547763 47.39453125 143.079101562 103.199312588 143.079101562 171.836914062 c 2
 143.079101562 468.130859375 l 2
 143.079101562 536.760541512 196.231457409 592.57421875 261.58872228 592.57421875 c 0
 326.95070741 592.57421875 380.10546875 536.763063462 380.10546875 468.134631877 c 0
 380.10546875 399.501569276 326.953484789 343.688476562 261.592773438 343.688476562 c 2
 204.70703125 343.688476562 l 2
 191.62375394 343.688476562 181.001953125 333.067113327 181.001953125 319.984375 c 0
 181.001953125 306.901367188 191.624023438 296.279296875 204.70703125 296.279296875 c 2
 261.592773438 296.279296875 l 2
 326.954140827 296.279296875 380.10546875 240.464552119 380.10546875 171.82792195 c 0
 380.10546875 103.196184707 326.957255627 47.39453125 261.58904569 47.39453125 c 0
253.527649865 -0.0146484375 m 0
 351.379003044 -0.0146484375 427.513671875 75.1843846334 427.513671875 171.833220923 c 0
 427.513671875 232.783848016 396.475236582 288.972064783 345.674804688 319.984375 c 1
 396.476397288 350.995813398 427.513671875 407.1789428 427.513671875 468.127655184 c 0
 427.513671875 564.778339239 351.37629026 639.982421875 253.52615025 639.982421875 c 0
 115.678796788 639.982421875 0.859375 494.566724012 0.859375 319.98677238 c 0
 0.859375 145.401943377 115.678113293 -0.0146484375 253.527649865 -0.0146484375 c 0
EndSplineSet
Validated: 524297
EndChar
StartChar: u10443
Encoding: 325 66627 67
Width: 558
VWidth: 761
Flags: W
HStem: -0.015625 118.521<105.175 463.093>
VStem: 0.875977 104.299<118.506 639.984>
LayerCount: 2
Fore
SplineSet
0.8759765625 639.984375 m 1
 105.174804688 639.984375 l 1
 105.174804688 118.505859375 l 1
 463.092773438 118.505859375 l 1
 463.092773438 -0.015625 l 1
 0.8759765625 -0.015625 l 1
 0.8759765625 639.984375 l 1
EndSplineSet
Validated: 524289
EndChar
StartChar: u10444
Encoding: 326 66628 68
Width: 587
VWidth: 762
Flags: W
HStem: 2.84766 52.3789<216.548 304.524>
VStem: 136.032 52.3789<83.5601 220.298> 332.453 78.5684<87.3251 220.126>
LayerCount: 2
Fore
SplineSet
227.25390625 333.743164062 m 1
 172.473632812 257.116210938 l 2
 151.73239349 236.37497159 136.032226562 191.020435875 136.032226562 151.844523775 c 0
 136.032226562 68.260130325 192.439744957 2.84765625 264.517560049 2.84765625 c 0
 344.602995186 2.84765625 411.021484375 82.2498182488 411.021484375 177.990579175 c 0
 411.021484375 223.993044177 392.490573917 276.009626838 366.8984375 301.844726562 c 2
 317.39453125 365.88671875 l 1
 522.3203125 642.84375 l 1
 448.245117188 642.84375 l 1
 282.50390625 411.022460938 l 1
 103.303710938 642.84375 l 1
 -1.4560546875 642.84375 l 1
 227.25390625 333.743164062 l 1
260.432617188 288.90234375 m 1
 306.756835938 226.296875 l 2
 307.578662928 224.755291721 308.522097092 223.375923488 310.126729554 221.369849479 c 0
 324.141779645 203.848561346 332.453125 177.885590328 332.453125 151.626681182 c 0
 332.453125 98.9644974609 299.777248381 55.2265625 260.434215399 55.2265625 c 0
 221.088445953 55.2265625 188.411132812 98.9625067433 188.411132812 151.623641128 c 0
 188.411132812 177.889519768 196.72528331 203.850864545 210.753163882 221.387734499 c 0
 212.37935537 223.42070794 213.349433692 224.837898712 214.1796875 226.393554688 c 2
 260.432617188 288.90234375 l 1
EndSplineSet
Validated: 524297
EndChar
StartChar: u10445
Encoding: 327 66629 69
Width: 523
VWidth: 759
Flags: W
HStem: -5.70703 43.3906<159.252 294.609> 590.906 43.3906<185.765 300.028>
VStem: -1.43555 43.6508<419.523 471.576> 56.7637 85.5479<419.691 545.651> 69.3105 43.5<81.963 196.953> 336.529 69.0273<79.9587 204.19> 344.254 43.5<431.58 547.002> 414.919 43.5808<157.014 203.833>
LayerCount: 2
Fore
SplineSet
387.75390625 489.06345896 m 0xe3
 387.75390625 569.060209428 314.806471086 634.296875 225.354355211 634.296875 c 0
 129.586708273 634.296875 56.763671875 557.241092828 56.763671875 455.907073999 c 0xf3
 56.763671875 443.439867418 57.9455610051 431.000633606 60.291015625 418.782226562 c 1
 51.049195534 428.46008958 44.2855011711 440.434839852 42.2152467504 450.784384944 c 0
 39.6527492044 463.594735034 31.2109028001 471.583007812 20.2356793849 471.583007812 c 0
 8.30589155328 471.583007812 -1.435546875 461.838197705 -1.435546875 449.90428077 c 0
 -1.435546875 448.307052615 -1.23326849071 446.739617209 -0.652332861885 443.835232023 c 0
 7.68867056972 402.13442112 39.9686030102 368.620603361 86.26953125 353.590820312 c 1
 111.780354427 314.181112528 151.860771233 286.973516165 201.447265625 275.405273438 c 1
 172.349994067 269.93066177 149.196942085 261.439575995 129.691547213 249.089781193 c 0
 105.327966823 233.664037678 88.1642849685 212.817598756 78.080029123 186.404142489 c 0
 72.2605999879 171.16144741 69.310546875 155.39206603 69.310546875 139.527254251 c 0
 69.310546875 59.2454651807 142.597367382 -5.70703125 233.180445613 -5.70703125 c 0
 271.37792765 -5.70703125 306.753869318 5.30493246006 335.928862537 26.2769043036 c 0
 379.867923286 57.8617872178 405.556640625 109.181360408 405.556640625 165.375630273 c 0xed
 405.556640625 178.421901836 404.145017333 191.584159019 401.353515625 204.56640625 c 1
 408.149747168 196.044853707 413.232600853 185.88582386 414.919189641 177.452879918 c 0
 417.424749126 164.925082493 425.909991216 157.006835938 436.829297106 157.006835938 c 0
 448.757665166 157.006835938 458.5 166.750780177 458.5 178.681118769 c 0
 458.5 180.276038743 458.299701175 181.835487084 457.727115538 184.698495001 c 0
 451.718225117 214.743783882 432.981770894 241.061510774 404.774486531 259.077180095 c 0
 394.394885718 265.706512205 382.885482766 271.089957676 370.607421875 275.05859375 c 1
 343.197751598 314.320616518 302.825777566 341.664275884 255.334960938 353.131835938 c 1
 284.478260132 358.586723386 307.663700311 367.058100049 327.201475281 379.390052635 c 0
 351.655423723 394.825020701 368.875112021 415.706355843 378.983485841 442.183147268 c 0
 384.803573311 457.427660852 387.75390625 473.198002675 387.75390625 489.06345896 c 0xe3
299.43359375 239.399414062 m 1
 323.092731653 217.674619966 336.529296875 185.963807879 336.529296875 151.852124138 c 0
 336.529296875 85.4074822445 291.741466551 37.68359375 229.384616743 37.68359375 c 0
 165.759393289 37.68359375 112.810546875 84.0505714869 112.810546875 139.766786649 c 0xed
 112.810546875 150.354454641 114.774822549 160.842762076 118.66712951 171.038180994 c 0
 126.835174906 192.433370368 141.789057675 208.142956828 164.227987079 218.901484606 c 0
 185.06761601 228.893214724 212.720302229 234.8716499 250.614842027 237.578086521 c 0
 264.722604236 238.585666095 280.447450886 239.172327885 299.43359375 239.399414062 c 1
171.22265625 389.426757812 m 1
 152.655689856 410.529627764 142.311523438 439.765354957 142.311523438 471.138319442 c 0
 142.311523438 537.919590019 185.453863143 590.90625 239.827931298 590.90625 c 0
 294.163318732 590.90625 344.25390625 541.939367029 344.25390625 488.822909637 c 0xf3
 344.25390625 478.23595176 342.289831861 467.748577527 338.397781388 457.553537494 c 0
 330.470225658 436.787684484 316.148522512 421.380576512 294.819106127 410.672147188 c 0
 274.709045042 400.575894954 247.915561453 394.36929062 211.673854733 391.411879075 c 0
 199.642466209 390.430088466 186.496395779 389.784951982 171.22265625 389.426757812 c 1
EndSplineSet
Validated: 524297
EndChar
StartChar: u10446
Encoding: 328 66630 70
Width: 522
VWidth: 761
Flags: W
HStem: -0.0146484 47.4092<196.273 326.867> 347.248 47.4158<143.922 283.558> 592.574 47.4082<196.803 328.802>
VStem: 0.868164 142.22<196.312 344.291 388.095 443.858> 380.135 47.4193<100.325 171.685 192.768 250.032 468.038 541.368>
LayerCount: 2
Fore
SplineSet
143.087890625 388.094726562 m 1
 143.087890625 468.130859375 l 2
 143.087890625 536.72873539 196.209839035 592.57421875 261.462257161 592.57421875 c 0
 317.3014899 592.57421875 369.02275174 550.48723652 376.975332902 498.57812134 c 0
 380.054251601 478.481005439 388.79544055 467.7421875 402.07518334 467.7421875 c 0
 415.848817884 467.7421875 425.760024614 479.181565745 425.760024614 495.078904954 c 0
 425.760024614 566.635052242 339.496738451 639.982421875 255.340095328 639.982421875 c 0
 116.091530185 639.982421875 0.8681640625 495.090308643 0.8681640625 319.98677238 c 0
 0.8681640625 145.350691901 115.72623471 -0.0146484375 253.712106876 -0.0146484375 c 0
 351.233526736 -0.0146484375 427.553930378 75.3216725361 427.553930378 171.585641775 c 0
 427.553930378 180.837434386 426.828340793 189.936638035 425.287595108 200.006455104 c 0
 408.206692707 311.641726427 311.015802546 394.664019325 197.409741069 394.664019325 c 0
 179.127526447 394.664019325 160.921779086 392.462347559 143.087890625 388.094726562 c 1
378.431138533 192.767765961 m 0
 379.596542713 185.151437118 380.134650736 178.491632268 380.134650736 171.684529216 c 0
 380.134650736 103.2761752 326.896214372 47.39453125 261.723582637 47.39453125 c 0
 196.261081469 47.39453125 143.087890625 103.170313884 143.087890625 171.836914062 c 2
 143.087890625 338.888671875 l 1
 160.821001673 344.438438559 179.119046213 347.248251254 197.527090811 347.248251254 c 0
 287.677729852 347.248251254 364.881197279 281.321428363 378.431138533 192.767765961 c 0
EndSplineSet
Validated: 524297
EndChar
StartChar: u10447
Encoding: 329 66631 71
Width: 598
VWidth: 761
Flags: W
HStem: -0.015625 47.4111<173.63 301.284> 592.573 47.4116<174.25 300.134>
VStem: -0.229492 104.298<130.856 506.492> 384.732 112.489<193.991 445.979>
LayerCount: 2
Fore
SplineSet
497.221679688 319.984375 m 1024
104.068359375 570.712890625 m 1
 104.068359375 639.984375 l 1
 -0.2294921875 639.984375 l 1
 -0.2294921875 -0.015625 l 1
 104.068359375 -0.015625 l 1
 104.068359375 69.2578125 l 1
 138.17112827 24.2558713408 186.917804044 -0.013671875 243.203841209 -0.013671875 c 0
 382.101102181 -0.013671875 497.221679688 145.010142853 497.221679688 319.98677238 c 0
 497.221679688 494.960177802 382.099160951 639.982421875 243.20061285 639.982421875 c 0
 186.915100893 639.982421875 138.168038537 615.712807355 104.068359375 570.712890625 c 1
107.710692127 194.787226757 m 0
 103.396510074 226.518105567 100.46875 277.101446655 100.46875 319.907325242 c 0
 100.46875 362.950847062 103.085347996 411.161425273 106.973702219 439.760473578 c 0
 119.664323216 533.100653519 170.523885625 592.57326396 237.655145438 592.572770743 c 0
 309.272100281 592.572244569 366.452736376 525.020116613 379.149938226 425.413483959 c 0
 382.507618829 399.073250699 384.732421875 357.056288814 384.732421875 319.984375 c 0
 384.732421875 282.912453964 382.50761831 240.895495225 379.149935281 214.555242939 c 0
 366.452923648 114.950102491 309.273008274 47.3955078125 237.661712993 47.3955078125 c 0
 171.277347262 47.3955078125 119.814234996 105.765473116 107.710692127 194.787226757 c 0
EndSplineSet
Validated: 524329
EndChar
StartChar: u10448
Encoding: 330 66632 72
Width: 525
VWidth: 761
Flags: W
HStem: -0.0146484 47.4092<120.262 279.531> 592.574 47.4082<150.089 308.558>
VStem: 1.47168 118.517<128.066 217.557> 1.47168 94.8232<417.124 539.886> 309.626 118.516<423.414 513.128> 333.32 94.8154<100.082 222.843>
LayerCount: 2
Fore
SplineSet
48.8857421875 468.130859375 m 1xc0
 48.880859375 468.130859375 l 1
 48.8857421875 468.130859375 l 1xc0
428.141601562 481.361990952 m 0xd8
 428.141601562 568.264599898 331.695125737 639.982421875 214.828074538 639.982421875 c 0
 93.5860095184 639.982421875 1.4716796875 564.677814695 1.4716796875 465.56092271 c 0xd8
 1.4716796875 370.491722504 87.37075609 288.320278174 201.691644952 274.029599924 c 0
 283.21501501 263.838774232 333.3203125 222.008460268 333.3203125 164.139652831 c 0
 333.3203125 99.3641982951 276.333218826 47.39453125 205.303999181 47.39453125 c 0
 151.253891863 47.39453125 94.2370684166 74.5067454864 67.4326171875 112.954101562 c 1
 97.3184281706 116.322907505 119.98828125 141.720861145 119.98828125 171.834338443 c 0
 119.98828125 204.546246229 93.4391062601 231.094726562 60.7263425475 231.094726562 c 0
 28.114918439 231.094726562 1.59402132915 204.671622541 1.47279092565 172.059666336 c 0
 1.47268651766 172.031579745 1.47254651129 172.006647478 1.47216796875 171.948730469 c 0
 1.47178942621 171.890813459 1.4716796875 171.838073358 1.4716796875 171.714063931 c 0
 1.4716796875 74.6824668124 94.2663320446 -0.0146484375 214.806640625 -0.0146484375 c 0
 336.029628237 -0.0146484375 428.135742188 75.2918442536 428.135742188 174.404461636 c 0xe4
 428.135742188 269.476862567 342.24322889 351.646886728 227.925779415 365.937539977 c 0
 146.400631547 376.128876686 96.294921875 417.959359483 96.294921875 475.828854917 c 0
 96.294921875 540.604272007 153.281676652 592.57421875 224.31005056 592.57421875 c 0
 278.359446086 592.57421875 335.374227169 565.461844593 362.177734375 527.013671875 c 1
 332.293445935 523.641852897 309.625976562 498.244534624 309.625976562 468.133092971 c 0
 309.625976562 435.421409511 336.175269315 408.873046875 368.888098824 408.873046875 c 0
 404.04919433 408.873046875 428.141601562 438.346969593 428.141601562 481.361990952 c 0xd8
EndSplineSet
Validated: 524297
EndChar
StartChar: u10449
Encoding: 331 66633 73
Width: 491
VWidth: 761
Flags: W
HStem: -0.015625 21G<149.666 253.961> 291.908 47.4697<87.1705 149.666> 481.334 47.3594<52.9716 127.47>
VStem: -1.18848 47.4082<378.41 474.759> 149.666 104.295<-0.015625 291.908 364.216 459.009 504.168 639.984> 320.326 48.6279<407.246 521.208>
LayerCount: 2
Fore
SplineSet
253.9609375 364.215820312 m 1
 296.476713436 388.720630667 321.5390625 431.090551437 321.5390625 478.462086479 c 0
 321.5390625 483.454330675 321.320213811 487.394219849 320.752474837 492.622866829 c 0
 320.398183756 495.885744805 320.326171875 496.809998112 320.326171875 498.094351801 c 0
 320.326171875 510.914365922 331.024665418 521.459960938 344.030554426 521.459960938 c 0
 356.670519922 521.459960938 366.156426777 511.763507222 368.031045635 496.926760713 c 0
 368.56755165 492.680562239 368.954101562 484.923567611 368.954101562 478.403564504 c 0
 368.954101562 405.105752256 325.273703979 341.6347437 253.9609375 311.309570312 c 1
 253.9609375 -0.015625 l 1
 149.666015625 -0.015625 l 1
 149.666015625 23.8759765625 l 2
 149.666015625 23.8905091074 149.665973301 23.9037091822 149.665840929 23.9304604715 c 0
 149.665457065 24.0080366451 149.665496951 24.0471017607 149.666015625 24.1015625 c 2
 149.666015625 291.908203125 l 1
 65.1144172463 295.81583835 -1.1884765625 357.526857593 -1.1884765625 432.315113524 c 0
 -1.1884765625 486.077712849 38.2856061958 528.693359375 88.0849045297 528.693359375 c 0
 109.942661881 528.693359375 131.224317836 520.217693442 149.666015625 504.16796875 c 1
 149.666015625 639.984375 l 1
 253.9609375 639.984375 l 1
 253.9609375 364.215820312 l 1
149.666015625 339.377929688 m 1
 149.666015625 371.174577698 149.623033189 396.520810578 149.562246844 400.569148862 c 0
 148.95011064 441.337095329 119.082781774 481.333984375 89.2518086922 481.333984375 c 0
 64.7495791225 481.333984375 46.2197265625 460.773486072 46.2197265625 433.586111113 c 0
 46.2197265625 383.78131659 91.1331232187 342.878839963 149.666015625 339.377929688 c 1
EndSplineSet
Validated: 524289
EndChar
StartChar: u1044A
Encoding: 332 66634 74
Width: 482
VWidth: 761
Flags: W
HStem: -0.0136719 47.4082<165.161 282.414>
VStem: -0.442383 104.889<185.235 639.984> 337.983 49.1357<104.99 196.888>
LayerCount: 2
Fore
SplineSet
221.416195696 -0.013671875 m 0
 99.6267758149 -0.013671875 -0.4423828125 141.631824465 -0.4423828125 314.021830183 c 0
 -0.4423828125 320.790867138 -0.314329730916 323.2310089 0.1474609375 325.26171875 c 2
 0.1474609375 639.984375 l 1
 104.446289062 639.984375 l 1
 104.446289062 201.771484375 l 2
 104.446289062 201.732985161 104.446508466 201.698525163 104.447217308 201.625692058 c 0
 104.448022733 201.542935244 104.448242188 201.466060288 104.448242188 201.266678058 c 0
 104.448242188 116.832822538 157.882388468 47.39453125 222.855919687 47.39453125 c 0
 277.83184601 47.39453125 330.038557364 99.1334153424 337.983438372 161.490385796 c 0
 341.010714612 185.25056231 349.527119478 197.203125 363.429374426 197.203125 c 0
 377.485726712 197.203125 387.119140625 185.399307689 387.119140625 168.176066174 c 0
 387.119140625 86.4180705144 301.965346967 -0.013671875 221.416195696 -0.013671875 c 0
EndSplineSet
Validated: 524289
EndChar
StartChar: u1044B
Encoding: 333 66635 75
Width: 529
VWidth: 761
Flags: W
HStem: -0.0146484 47.9592<107.47 236.855> 592.533 47.4491<105.629 237.274>
VStem: 2.04102 118.516<450.901 539.054> 320.408 112.49<194.06 445.879>
LayerCount: 2
Fore
SplineSet
2.041015625 488.295783882 m 0
 2.041015625 461.700689966 30.608616821 436.940429688 61.2931907395 436.940429688 c 0
 93.9966906928 436.940429688 120.556640625 463.49863668 120.556640625 496.199990535 c 0
 120.556640625 520.289590087 105.938654041 542.012271156 83.607421875 551.107421875 c 1
 107.715650319 577.784929375 139.286462601 592.514795044 172.396337881 592.533305819 c 0
 244.759685212 592.573762078 302.092590452 525.301943049 314.8257086 425.413171034 c 0
 318.183114388 399.074992331 320.407714844 357.058387988 320.407714844 319.984375 c 0
 320.407714844 282.910543419 318.183129535 240.893899045 314.8257664 214.555852305 c 0
 302.100750208 114.729870519 244.784440706 47.3729993672 173.050403337 47.9445518684 c 0
 119.210473672 48.3735301831 66.9821513196 88.7049934935 52.1948802181 141.270928764 c 0
 46.6836568155 160.862279369 38.2704283989 170.161132812 26.0561861143 170.161132812 c 0
 13.0366957135 170.161132812 2.39083048173 159.501246996 2.39083048173 146.464609952 c 0
 2.39083048173 143.995925769 2.88145110578 141.467405025 4.42556025351 135.978184833 c 0
 27.4522917036 54.1194642699 97.4855280565 -0.0146484375 180.359324721 -0.0146484375 c 0
 318.107863786 -0.0146484375 432.897460938 145.43995392 432.897460938 319.98677238 c 0
 432.897460938 494.354749843 318.24021125 639.982421875 180.954814521 639.982421875 c 0
 96.0548844455 639.982421875 2.041015625 560.275614607 2.041015625 488.295783882 c 0
EndSplineSet
Validated: 524329
EndChar
StartChar: u1044C
Encoding: 334 66636 76
Width: 357
VWidth: 761
Flags: W
HStem: -0.015625 21G<133.039 237.333>
VStem: 0.300781 104.295<344.639 639.984> 133.039 104.294<-0.015625 295.33>
LayerCount: 2
Fore
SplineSet
237.333007812 391.096679688 m 1
 237.333007812 -0.015625 l 1
 133.0390625 -0.015625 l 1
 133.0390625 295.330078125 l 1
 0.30078125 248.872070312 l 1
 0.30078125 639.984375 l 1
 104.595703125 639.984375 l 1
 104.595703125 344.638671875 l 1
 237.333007812 391.096679688 l 1
EndSplineSet
Validated: 524289
EndChar
StartChar: u1044D
Encoding: 335 66637 77
Width: 641
VWidth: 761
Flags: W
HStem: -0.015625 21G<-0.479492 59.8619 416.697 520.995>
VStem: -0.479492 104.297<156.111 639.984> 416.697 104.298<-0.015625 571.838>
LayerCount: 2
Fore
SplineSet
416.697265625 639.984375 m 1
 520.995117188 639.984375 l 1
 520.995117188 -0.015625 l 1
 416.697265625 -0.015625 l 1
 416.697265625 571.837890625 l 1
 46.9296875 -0.015625 l 1
 -0.4794921875 -0.015625 l 1
 -0.4794921875 639.984375 l 1
 103.817382812 639.984375 l 1
 103.817382812 156.111328125 l 1
 416.697265625 639.984375 l 1
EndSplineSet
Validated: 524289
EndChar
StartChar: u1044E
Encoding: 336 66638 78
Width: 604
VWidth: 761
Flags: W
VStem: 317.8 47.4072<616.27 639.905>
LayerCount: 2
Fore
SplineSet
199.28515625 468.123046875 m 2
 199.28515625 397.014648438 l 2
 199.28515625 387.229746063 205.308353182 378.439333679 214.436523438 374.90234375 c 2
 317.799804688 334.848632812 l 1
 317.799804688 143.147460938 l 1
 237.547851562 205.342773438 l 2
 233.366909868 208.625476825 228.376161709 210.365234375 223.140190179 210.365234375 c 0
 212.688877662 210.365234375 203.369488674 203.559907722 200.33203125 193.709960938 c 2
 172.73046875 117.802734375 l 1
 58.59765625 206.250976562 58.59765625 206.250976562 58.3942844674 206.37515298 c 0
 53.9375018801 209.096411996 49.7703128156 210.372070312 45.3375670164 210.372070312 c 0
 34.9215802894 210.372070312 25.5885806476 203.548842582 22.5546875 193.715820312 c 2
 2.5849609375 138.801757812 l 2
 1.37666610063 135.926016101 0.7529296875 132.812838196 0.7529296875 129.65776832 c 0
 0.7529296875 122.097639721 4.27976564779 115.089604764 10.37109375 110.545898438 c 2
 149.287109375 4.890625 l 2
 153.449238714 1.66446355863 158.396590566 -0.04296875 163.582390104 -0.04296875 c 0
 174.031301105 -0.04296875 183.351397836 6.76343490147 186.388671875 16.6123046875 c 2
 213.991210938 92.5205078125 l 1
 327.000976562 4.935546875 l 2
 331.212393753 1.67174491381 336.170622502 -0.0498046875 341.359269476 -0.0498046875 c 0
 354.562850418 -0.0498046875 365.20703125 10.5428954751 365.20703125 23.6826171875 c 2
 365.20703125 316.477539062 l 1
 451.46484375 283.051757812 l 2
 454.218304952 281.984922103 457.093694927 281.442382812 459.994328743 281.442382812 c 0
 473.064330718 281.442382812 483.72265625 292.097283613 483.72265625 305.163085938 c 2
 483.72265625 376.272460938 l 2
 483.72265625 386.056951816 477.698899879 394.847614068 468.5703125 398.384765625 c 2
 365.20703125 438.438476562 l 1
 365.20703125 616.26953125 l 2
 365.20703125 629.353187444 354.586265664 639.974609375 341.503417969 639.974609375 c 0
 328.420570274 639.974609375 317.799804688 629.353187444 317.799804688 616.26953125 c 2
 317.799804688 456.809570312 l 1
 231.541992188 490.235351562 l 2
 228.788560905 491.302175678 225.913169961 491.844726562 223.012686568 491.844726562 c 0
 209.943097609 491.844726562 199.28515625 481.189413191 199.28515625 468.123046875 c 2
EndSplineSet
Validated: 524297
EndChar
StartChar: u1044F
Encoding: 337 66639 79
Width: 622
VWidth: 761
Flags: W
VStem: 0.524414 134.687<194.622 445.274> 387.304 134.688<194.692 445.35>
LayerCount: 2
Fore
SplineSet
184.479492188 410.719726562 m 2
 181.725736935 411.786676201 178.851279918 412.329101562 175.950983757 412.329101562 c 0
 162.880485778 412.329101562 152.221679688 401.673720216 152.221679688 388.607421875 c 2
 152.221679688 317.499023438 l 2
 152.221679688 307.714402926 158.244590692 298.924796033 167.373046875 295.387695312 c 2
 237.553710938 268.189453125 l 1
 237.553710938 50.521484375 l 1
 186.972855312 64.0422341802 151.792838242 117.98257864 141.637068271 197.587267052 c 0
 137.797816036 227.68074876 135.211914062 276.941293313 135.211914062 319.984248181 c 0
 135.211914062 363.043124489 137.78820405 412.206227794 141.61780583 442.22728765 c 0
 151.789174409 521.962801298 186.953307193 575.924483821 237.553710938 589.447265625 c 1
 237.553710938 390.150390625 l 1
 184.479492188 410.719726562 l 2
261.259980734 639.982421875 m 0
 117.146359709 639.982421875 0.5244140625 496.854594266 0.5244140625 319.986772417 c 0
 0.5244140625 143.115692844 117.144583285 -0.0146484375 261.256132561 -0.0146484375 c 0
 405.369794379 -0.0146484375 521.991210938 143.112632445 521.991210938 319.98063116 c 0
 521.991210938 496.851863031 405.371217644 639.982421875 261.259980734 639.982421875 c 0
380.877693668 442.388165778 m 0
 384.717684641 412.288987421 387.303710938 363.028043607 387.303710938 319.979636524 c 0
 387.303710938 276.917135671 384.72760799 227.755157818 380.898163619 197.737093499 c 0
 370.727578675 118.012401516 335.56084967 64.0485301387 284.961914062 50.521484375 c 1
 284.961914062 249.817382812 l 1
 338.037109375 229.248046875 l 2
 340.790834711 228.181108827 343.665292696 227.638671875 346.565438432 227.638671875 c 0
 359.63531191 227.638671875 370.293945312 238.294238563 370.293945312 251.360351562 c 2
 370.293945312 322.46875 l 2
 370.293945312 332.254568553 364.271788353 341.043075021 355.142578125 344.580078125 c 2
 284.961914062 371.778320312 l 1
 284.961914062 589.447265625 l 1
 335.545864854 575.926512791 370.721670425 521.994591216 380.877693668 442.388165778 c 0
EndSplineSet
Validated: 524297
EndChar
